<?xml version="1.0" encoding="utf-8" standalone="no"?>
<!DOCTYPE svg PUBLIC "-//W3C//DTD SVG 1.1//EN"
  "http://www.w3.org/Graphics/SVG/1.1/DTD/svg11.dtd">
<svg xmlns:xlink="http://www.w3.org/1999/xlink" width="460.8pt" height="345.6pt" viewBox="0 0 460.8 345.6" xmlns="http://www.w3.org/2000/svg" version="1.1">
 <metadata>
  <rdf:RDF xmlns:dc="http://purl.org/dc/elements/1.1/" xmlns:cc="http://creativecommons.org/ns#" xmlns:rdf="http://www.w3.org/1999/02/22-rdf-syntax-ns#">
   <cc:Work>
    <dc:type rdf:resource="http://purl.org/dc/dcmitype/StillImage"/>
    <dc:date>2024-04-01T10:12:06.585560</dc:date>
    <dc:format>image/svg+xml</dc:format>
    <dc:creator>
     <cc:Agent>
      <dc:title>Matplotlib v3.8.3, https://matplotlib.org/</dc:title>
     </cc:Agent>
    </dc:creator>
   </cc:Work>
  </rdf:RDF>
 </metadata>
 <defs>
  <style type="text/css">*{stroke-linejoin: round; stroke-linecap: butt}</style>
 </defs>
 <g id="figure_1">
  <g id="patch_1">
   <path d="M 0 345.6 
L 460.8 345.6 
L 460.8 0 
L 0 0 
L 0 345.6 
z
" style="fill: none"/>
  </g>
  <g id="axes_1">
   <g id="patch_2">
    <path d="M 57.6 307.584 
L 414.72 307.584 
L 414.72 41.472 
L 57.6 41.472 
L 57.6 307.584 
z
" style="fill: none"/>
   </g>
   <g id="PolyCollection_1">
    <path d="M 73.832727 295.488 
L 73.832727 295.488 
L 74.157707 295.488 
L 74.482686 295.488 
L 74.807666 295.488 
L 75.132645 295.488 
L 75.457625 295.488 
L 75.782604 295.488 
L 76.107584 295.488 
L 76.432563 295.488 
L 76.757543 295.488 
L 77.082523 295.488 
L 77.407502 295.488 
L 77.732482 295.488 
L 78.057461 295.488 
L 78.382441 295.488 
L 78.70742 295.488 
L 79.0324 295.488 
L 79.357379 295.488 
L 79.682359 295.488 
L 80.007338 295.488 
L 80.332318 295.488 
L 80.657297 295.488 
L 80.982277 295.488 
L 81.307256 295.488 
L 81.632236 295.488 
L 81.957215 295.488 
L 82.282195 295.488 
L 82.607174 295.488 
L 82.932154 295.488 
L 83.257133 295.488 
L 83.582113 295.488 
L 83.907093 295.488 
L 84.232072 295.488 
L 84.557052 295.488 
L 84.882031 295.488 
L 85.207011 295.488 
L 85.53199 295.488 
L 85.85697 295.488 
L 86.181949 295.488 
L 86.506929 295.488 
L 86.831908 295.488 
L 87.156888 295.488 
L 87.481867 295.488 
L 87.806847 295.488 
L 88.131826 295.488 
L 88.456806 295.488 
L 88.781785 295.488 
L 89.106765 295.488 
L 89.431744 295.488 
L 89.756724 295.488 
L 90.081704 295.488 
L 90.406683 295.488 
L 90.731663 295.488 
L 91.056642 295.488 
L 91.381622 295.488 
L 91.706601 295.488 
L 92.031581 295.488 
L 92.35656 295.488 
L 92.68154 295.488 
L 93.006519 295.488 
L 93.331499 295.488 
L 93.656478 295.488 
L 93.981458 295.488 
L 94.306437 295.488 
L 94.631417 295.488 
L 94.956396 295.488 
L 95.281376 295.488 
L 95.606355 295.488 
L 95.931335 295.488 
L 96.256314 295.488 
L 96.581294 295.488 
L 96.906274 295.488 
L 97.231253 295.488 
L 97.556233 295.488 
L 97.881212 295.488 
L 98.206192 295.488 
L 98.531171 295.488 
L 98.856151 295.488 
L 99.18113 295.488 
L 99.50611 295.488 
L 99.831089 295.488 
L 100.156069 295.488 
L 100.481048 295.488 
L 100.806028 295.488 
L 101.131007 295.488 
L 101.455987 295.488 
L 101.780966 295.488 
L 102.105946 295.488 
L 102.430925 295.488 
L 102.755905 295.488 
L 103.080885 295.488 
L 103.405864 295.488 
L 103.730844 295.488 
L 104.055823 295.488 
L 104.380803 295.488 
L 104.705782 295.488 
L 105.030762 295.488 
L 105.355741 295.488 
L 105.680721 295.488 
L 106.0057 295.488 
L 106.33068 295.488 
L 106.655659 295.488 
L 106.980639 295.488 
L 107.305618 295.488 
L 107.630598 295.488 
L 107.955577 295.488 
L 108.280557 295.488 
L 108.605536 295.488 
L 108.930516 295.488 
L 109.255495 295.488 
L 109.580475 295.488 
L 109.905455 295.488 
L 110.230434 295.488 
L 110.555414 295.488 
L 110.880393 295.488 
L 111.205373 295.488 
L 111.530352 295.488 
L 111.855332 295.488 
L 112.180311 295.488 
L 112.505291 295.488 
L 112.83027 295.488 
L 113.15525 295.488 
L 113.480229 295.488 
L 113.805209 295.488 
L 114.130188 295.488 
L 114.455168 295.488 
L 114.780147 295.488 
L 115.105127 295.488 
L 115.430106 295.488 
L 115.755086 295.488 
L 116.080066 295.488 
L 116.405045 295.488 
L 116.730025 295.488 
L 117.055004 295.488 
L 117.379984 295.488 
L 117.704963 295.488 
L 118.029943 295.488 
L 118.354922 295.488 
L 118.679902 295.488 
L 119.004881 295.488 
L 119.329861 295.488 
L 119.65484 295.488 
L 119.97982 295.488 
L 120.304799 295.488 
L 120.629779 295.488 
L 120.954758 295.488 
L 121.279738 295.488 
L 121.604717 295.488 
L 121.929697 295.488 
L 122.254676 295.488 
L 122.579656 295.488 
L 122.904636 295.488 
L 123.229615 295.488 
L 123.554595 295.488 
L 123.879574 295.488 
L 124.204554 295.488 
L 124.529533 295.488 
L 124.854513 295.488 
L 125.179492 295.488 
L 125.504472 295.488 
L 125.829451 295.488 
L 126.154431 295.488 
L 126.47941 295.488 
L 126.80439 295.488 
L 127.129369 295.488 
L 127.454349 295.488 
L 127.779328 295.488 
L 128.104308 295.488 
L 128.429287 295.488 
L 128.754267 295.488 
L 129.079247 295.488 
L 129.404226 295.488 
L 129.729206 295.488 
L 130.054185 295.488 
L 130.379165 295.488 
L 130.704144 295.488 
L 131.029124 295.488 
L 131.354103 295.488 
L 131.679083 295.488 
L 132.004062 295.488 
L 132.329042 295.488 
L 132.654021 295.488 
L 132.979001 295.488 
L 133.30398 295.488 
L 133.62896 295.488 
L 133.953939 295.488 
L 134.278919 295.488 
L 134.603898 295.488 
L 134.928878 295.488 
L 135.253857 295.488 
L 135.578837 295.488 
L 135.903817 295.488 
L 136.228796 295.488 
L 136.553776 295.488 
L 136.878755 295.488 
L 137.203735 295.488 
L 137.528714 295.488 
L 137.853694 295.488 
L 138.178673 295.488 
L 138.503653 295.488 
L 138.828632 295.488 
L 139.153612 295.488 
L 139.478591 295.488 
L 139.803571 295.488 
L 140.12855 295.488 
L 140.45353 295.488 
L 140.778509 295.488 
L 141.103489 295.488 
L 141.428468 295.488 
L 141.753448 295.488 
L 142.078428 295.488 
L 142.403407 295.488 
L 142.728387 295.488 
L 143.053366 295.488 
L 143.378346 295.488 
L 143.703325 295.488 
L 144.028305 295.488 
L 144.353284 295.488 
L 144.678264 295.488 
L 145.003243 295.488 
L 145.328223 295.488 
L 145.653202 295.488 
L 145.978182 295.488 
L 146.303161 295.488 
L 146.628141 295.488 
L 146.95312 295.488 
L 147.2781 295.488 
L 147.603079 295.488 
L 147.928059 295.488 
L 148.253038 295.488 
L 148.578018 295.488 
L 148.902998 295.488 
L 149.227977 295.488 
L 149.552957 295.488 
L 149.877936 295.488 
L 150.202916 295.488 
L 150.527895 295.488 
L 150.852875 295.488 
L 151.177854 295.488 
L 151.502834 295.488 
L 151.827813 295.488 
L 152.152793 295.488 
L 152.477772 295.488 
L 152.802752 295.488 
L 153.127731 295.488 
L 153.452711 295.488 
L 153.77769 295.488 
L 154.10267 295.488 
L 154.427649 295.488 
L 154.752629 295.488 
L 155.077609 295.488 
L 155.402588 295.488 
L 155.727568 295.488 
L 156.052547 295.488 
L 156.377527 295.488 
L 156.702506 295.488 
L 157.027486 295.488 
L 157.352465 295.488 
L 157.677445 295.488 
L 158.002424 295.488 
L 158.327404 295.488 
L 158.652383 295.488 
L 158.977363 295.488 
L 159.302342 295.488 
L 159.627322 295.488 
L 159.952301 295.488 
L 160.277281 295.488 
L 160.60226 295.488 
L 160.92724 295.488 
L 161.252219 295.488 
L 161.577199 295.487999 
L 161.902179 295.487999 
L 162.227158 295.487999 
L 162.552138 295.487999 
L 162.877117 295.487999 
L 163.202097 295.487999 
L 163.527076 295.487999 
L 163.852056 295.487999 
L 164.177035 295.487999 
L 164.502015 295.487999 
L 164.826994 295.487999 
L 165.151974 295.487998 
L 165.476953 295.487998 
L 165.801933 295.487998 
L 166.126912 295.487998 
L 166.451892 295.487998 
L 166.776871 295.487997 
L 167.101851 295.487997 
L 167.42683 295.487997 
L 167.75181 295.487997 
L 168.07679 295.487996 
L 168.401769 295.487996 
L 168.726749 295.487996 
L 169.051728 295.487995 
L 169.376708 295.487995 
L 169.701687 295.487994 
L 170.026667 295.487994 
L 170.351646 295.487993 
L 170.676626 295.487992 
L 171.001605 295.487992 
L 171.326585 295.487991 
L 171.651564 295.48799 
L 171.976544 295.487989 
L 172.301523 295.487988 
L 172.626503 295.487987 
L 172.951482 295.487986 
L 173.276462 295.487984 
L 173.601441 295.487983 
L 173.926421 295.487981 
L 174.2514 295.487979 
L 174.57638 295.487977 
L 174.90136 295.487975 
L 175.226339 295.487973 
L 175.551319 295.487971 
L 175.876298 295.487968 
L 176.201278 295.487965 
L 176.526257 295.487962 
L 176.851237 295.487958 
L 177.176216 295.487955 
L 177.501196 295.487951 
L 177.826175 295.487946 
L 178.151155 295.487941 
L 178.476134 295.487936 
L 178.801114 295.48793 
L 179.126093 295.487924 
L 179.451073 295.487918 
L 179.776052 295.48791 
L 180.101032 295.487902 
L 180.426011 295.487894 
L 180.750991 295.487885 
L 181.075971 295.487874 
L 181.40095 295.487864 
L 181.72593 295.487852 
L 182.050909 295.487839 
L 182.375889 295.487825 
L 182.700868 295.48781 
L 183.025848 295.487794 
L 183.350827 295.487776 
L 183.675807 295.487757 
L 184.000786 295.487736 
L 184.325766 295.487714 
L 184.650745 295.48769 
L 184.975725 295.487664 
L 185.300704 295.487636 
L 185.625684 295.487606 
L 185.950663 295.487573 
L 186.275643 295.487537 
L 186.600622 295.487499 
L 186.925602 295.487458 
L 187.250581 295.487413 
L 187.575561 295.487365 
L 187.900541 295.487313 
L 188.22552 295.487257 
L 188.5505 295.487197 
L 188.875479 295.487132 
L 189.200459 295.487062 
L 189.525438 295.486986 
L 189.850418 295.486905 
L 190.175397 295.486817 
L 190.500377 295.486723 
L 190.825356 295.486622 
L 191.150336 295.486513 
L 191.475315 295.486396 
L 191.800295 295.48627 
L 192.125274 295.486134 
L 192.450254 295.485989 
L 192.775233 295.485832 
L 193.100213 295.485664 
L 193.425192 295.485483 
L 193.750172 295.485289 
L 194.075152 295.485081 
L 194.400131 295.484858 
L 194.725111 295.484619 
L 195.05009 295.484362 
L 195.37507 295.484086 
L 195.700049 295.483791 
L 196.025029 295.483474 
L 196.350008 295.483135 
L 196.674988 295.482771 
L 196.999967 295.482382 
L 197.324947 295.481966 
L 197.649926 295.481519 
L 197.974906 295.481042 
L 198.299885 295.480531 
L 198.624865 295.479985 
L 198.949844 295.479401 
L 199.274824 295.478776 
L 199.599803 295.478109 
L 199.924783 295.477396 
L 200.249762 295.476634 
L 200.574742 295.47582 
L 200.899722 295.474951 
L 201.224701 295.474024 
L 201.549681 295.473034 
L 201.87466 295.471978 
L 202.19964 295.470851 
L 202.524619 295.46965 
L 202.849599 295.468369 
L 203.174578 295.467004 
L 203.499558 295.46555 
L 203.824537 295.464 
L 204.149517 295.46235 
L 204.474496 295.460593 
L 204.799476 295.458723 
L 205.124455 295.456732 
L 205.449435 295.454614 
L 205.774414 295.452361 
L 206.099394 295.449966 
L 206.424373 295.447419 
L 206.749353 295.444712 
L 207.074333 295.441836 
L 207.399312 295.43878 
L 207.724292 295.435535 
L 208.049271 295.432089 
L 208.374251 295.428431 
L 208.69923 295.424549 
L 209.02421 295.420431 
L 209.349189 295.416062 
L 209.674169 295.41143 
L 209.999148 295.406519 
L 210.324128 295.401313 
L 210.649107 295.395798 
L 210.974087 295.389955 
L 211.299066 295.383766 
L 211.624046 295.377214 
L 211.949025 295.370279 
L 212.274005 295.362939 
L 212.598984 295.355174 
L 212.923964 295.34696 
L 213.248943 295.338275 
L 213.573923 295.329093 
L 213.898903 295.319388 
L 214.223882 295.309134 
L 214.548862 295.298302 
L 214.873841 295.286862 
L 215.198821 295.274784 
L 215.5238 295.262035 
L 215.84878 295.248582 
L 216.173759 295.234388 
L 216.498739 295.219417 
L 216.823718 295.203632 
L 217.148698 295.186991 
L 217.473677 295.169453 
L 217.798657 295.150974 
L 218.123636 295.131509 
L 218.448616 295.111011 
L 218.773595 295.08943 
L 219.098575 295.066715 
L 219.423554 295.042812 
L 219.748534 295.017667 
L 220.073514 294.991221 
L 220.398493 294.963414 
L 220.723473 294.934185 
L 221.048452 294.903467 
L 221.373432 294.871194 
L 221.698411 294.837296 
L 222.023391 294.8017 
L 222.34837 294.764331 
L 222.67335 294.725111 
L 222.998329 294.683959 
L 223.323309 294.640791 
L 223.648288 294.595521 
L 223.973268 294.548057 
L 224.298247 294.498308 
L 224.623227 294.446177 
L 224.948206 294.391563 
L 225.273186 294.334365 
L 225.598165 294.274475 
L 225.923145 294.211782 
L 226.248124 294.146174 
L 226.573104 294.077533 
L 226.898084 294.005738 
L 227.223063 293.930662 
L 227.548043 293.852178 
L 227.873022 293.770153 
L 228.198002 293.684448 
L 228.522981 293.594924 
L 228.847961 293.501434 
L 229.17294 293.403829 
L 229.49792 293.301954 
L 229.822899 293.195652 
L 230.147879 293.084759 
L 230.472858 292.969108 
L 230.797838 292.848528 
L 231.122817 292.72284 
L 231.447797 292.591865 
L 231.772776 292.455416 
L 232.097756 292.313303 
L 232.422735 292.16533 
L 232.747715 292.011297 
L 233.072695 291.851 
L 233.397674 291.684227 
L 233.722654 291.510764 
L 234.047633 291.330392 
L 234.372613 291.142887 
L 234.697592 290.948017 
L 235.022572 290.74555 
L 235.347551 290.535247 
L 235.672531 290.316862 
L 235.99751 290.090148 
L 236.32249 289.85485 
L 236.647469 289.61071 
L 236.972449 289.357465 
L 237.297428 289.094848 
L 237.622408 288.822585 
L 237.947387 288.5404 
L 238.272367 288.248012 
L 238.597346 287.945135 
L 238.922326 287.631479 
L 239.247305 287.30675 
L 239.572285 286.97065 
L 239.897265 286.622876 
L 240.222244 286.263123 
L 240.547224 285.891082 
L 240.872203 285.50644 
L 241.197183 285.10888 
L 241.522162 284.698083 
L 241.847142 284.273727 
L 242.172121 283.835487 
L 242.497101 283.383036 
L 242.82208 282.916044 
L 243.14706 282.434178 
L 243.472039 281.937106 
L 243.797019 281.424492 
L 244.121998 280.895999 
L 244.446978 280.35129 
L 244.771957 279.790028 
L 245.096937 279.211872 
L 245.421916 278.616485 
L 245.746896 278.003529 
L 246.071876 277.372664 
L 246.396855 276.723555 
L 246.721835 276.055865 
L 247.046814 275.369261 
L 247.371794 274.663411 
L 247.696773 273.937984 
L 248.021753 273.192655 
L 248.346732 272.427101 
L 248.671712 271.641001 
L 248.996691 270.83404 
L 249.321671 270.005907 
L 249.64665 269.156297 
L 249.97163 268.284909 
L 250.296609 267.391449 
L 250.621589 266.475629 
L 250.946568 265.537169 
L 251.271548 264.575794 
L 251.596527 263.591241 
L 251.921507 262.583251 
L 252.246486 261.551578 
L 252.571466 260.495984 
L 252.896446 259.416239 
L 253.221425 258.312128 
L 253.546405 257.183443 
L 253.871384 256.029991 
L 254.196364 254.851589 
L 254.521343 253.648067 
L 254.846323 252.419271 
L 255.171302 251.165056 
L 255.496282 249.885297 
L 255.821261 248.579881 
L 256.146241 247.24871 
L 256.47122 245.891703 
L 256.7962 244.508797 
L 257.121179 243.099943 
L 257.446159 241.665113 
L 257.771138 240.204296 
L 258.096118 238.717498 
L 258.421097 237.204746 
L 258.746077 235.666088 
L 259.071057 234.101588 
L 259.396036 232.511335 
L 259.721016 230.895437 
L 260.045995 229.254024 
L 260.370975 227.587247 
L 260.695954 225.895281 
L 261.020934 224.178323 
L 261.345913 222.436593 
L 261.670893 220.670334 
L 261.995872 218.879814 
L 262.320852 217.065325 
L 262.645831 215.227183 
L 262.970811 213.365728 
L 263.29579 211.481328 
L 263.62077 209.574371 
L 263.945749 207.645276 
L 264.270729 205.694484 
L 264.595708 203.722462 
L 264.920688 201.729705 
L 265.245667 199.716731 
L 265.570647 197.684087 
L 265.895627 195.632343 
L 266.220606 193.562097 
L 266.545586 191.473972 
L 266.870565 189.368618 
L 267.195545 187.246709 
L 267.520524 185.108947 
L 267.845504 182.956057 
L 268.170483 180.788791 
L 268.495463 178.607926 
L 268.820442 176.414262 
L 269.145422 174.208626 
L 269.470401 171.991867 
L 269.795381 169.764859 
L 270.12036 167.528499 
L 270.44534 165.283706 
L 270.770319 163.031424 
L 271.095299 160.772615 
L 271.420278 158.508266 
L 271.745258 156.239382 
L 272.070238 153.96699 
L 272.395217 151.692135 
L 272.720197 149.415882 
L 273.045176 147.139313 
L 273.370156 144.863527 
L 273.695135 142.58964 
L 274.020115 140.318785 
L 274.345094 138.052107 
L 274.670074 135.790767 
L 274.995053 133.535938 
L 275.320033 131.288804 
L 275.645012 129.050562 
L 275.969992 126.822418 
L 276.294971 124.605587 
L 276.619951 122.401292 
L 276.94493 120.210762 
L 277.26991 118.035233 
L 277.594889 115.875945 
L 277.919869 113.734141 
L 278.244848 111.611068 
L 278.569828 109.507971 
L 278.894808 107.426098 
L 279.219787 105.366694 
L 279.544767 103.331002 
L 279.869746 101.320261 
L 280.194726 99.335705 
L 280.519705 97.378562 
L 280.844685 95.450053 
L 281.169664 93.551389 
L 281.494644 91.683771 
L 281.819623 89.848391 
L 282.144603 88.046425 
L 282.469582 86.279039 
L 282.794562 84.547381 
L 283.119541 82.852583 
L 283.444521 81.195762 
L 283.7695 79.578014 
L 284.09448 78.000415 
L 284.419459 76.464021 
L 284.744439 74.969866 
L 285.069419 73.518959 
L 285.394398 72.112286 
L 285.719378 70.750806 
L 286.044357 69.435453 
L 286.369337 68.167131 
L 286.694316 66.946716 
L 287.019296 65.775054 
L 287.344275 64.652962 
L 287.669255 63.581223 
L 287.994234 62.560588 
L 288.319214 61.591773 
L 288.644193 60.675462 
L 288.969173 59.812303 
L 289.294152 59.002908 
L 289.619132 58.24785 
L 289.944111 57.547668 
L 290.269091 56.902862 
L 290.59407 56.313892 
L 290.91905 55.781179 
L 291.244029 55.305107 
L 291.569009 54.886017 
L 291.893989 54.524209 
L 292.218968 54.219946 
L 292.543948 53.973445 
L 292.868927 53.784885 
L 293.193907 53.654402 
L 293.518886 53.582089 
L 293.843866 53.568 
L 294.168845 53.612144 
L 294.493825 53.714489 
L 294.818804 53.874962 
L 295.143784 54.093446 
L 295.468763 54.369785 
L 295.793743 54.703779 
L 296.118722 55.095186 
L 296.443702 55.543727 
L 296.768681 56.049078 
L 297.093661 56.610877 
L 297.41864 57.228721 
L 297.74362 57.902168 
L 298.0686 58.630738 
L 298.393579 59.41391 
L 298.718559 60.251129 
L 299.043538 61.1418 
L 299.368518 62.085292 
L 299.693497 63.080941 
L 300.018477 64.128044 
L 300.343456 65.225868 
L 300.668436 66.373644 
L 300.993415 67.570572 
L 301.318395 68.815821 
L 301.643374 70.108529 
L 301.968354 71.447804 
L 302.293333 72.832728 
L 302.618313 74.262353 
L 302.943292 75.735706 
L 303.268272 77.251789 
L 303.593251 78.80958 
L 303.918231 80.408035 
L 304.24321 82.046085 
L 304.56819 83.722645 
L 304.89317 85.436608 
L 305.218149 87.186849 
L 305.543129 88.972227 
L 305.868108 90.791585 
L 306.193088 92.643752 
L 306.518067 94.527543 
L 306.843047 96.441762 
L 307.168026 98.385202 
L 307.493006 100.356646 
L 307.817985 102.354871 
L 308.142965 104.378644 
L 308.467944 106.42673 
L 308.792924 108.497886 
L 309.117903 110.590869 
L 309.442883 112.704432 
L 309.767862 114.837328 
L 310.092842 116.988311 
L 310.417821 119.156137 
L 310.742801 121.339563 
L 311.067781 123.537351 
L 311.39276 125.74827 
L 311.71774 127.971092 
L 312.042719 130.204599 
L 312.367699 132.44758 
L 312.692678 134.698835 
L 313.017658 136.957172 
L 313.342637 139.221413 
L 313.667617 141.49039 
L 313.992596 143.762952 
L 314.317576 146.037959 
L 314.642555 148.314288 
L 314.967535 150.59083 
L 315.292514 152.866496 
L 315.617494 155.140212 
L 315.942473 157.410922 
L 316.267453 159.677592 
L 316.592432 161.939206 
L 316.917412 164.194768 
L 317.242391 166.443304 
L 317.567371 168.683861 
L 317.892351 170.915507 
L 318.21733 173.137336 
L 318.54231 175.348462 
L 318.867289 177.548023 
L 319.192269 179.735183 
L 319.517248 181.909128 
L 319.842228 184.069069 
L 320.167207 186.214244 
L 320.492187 188.343912 
L 320.817166 190.457363 
L 321.142146 192.553907 
L 321.467125 194.632883 
L 321.792105 196.693656 
L 322.117084 198.735615 
L 322.442064 200.758177 
L 322.767043 202.760783 
L 323.092023 204.742901 
L 323.417002 206.704025 
L 323.741982 208.643676 
L 324.066962 210.561398 
L 324.391941 212.456763 
L 324.716921 214.329368 
L 325.0419 216.178835 
L 325.36688 218.00481 
L 325.691859 219.806965 
L 326.016839 221.584998 
L 326.341818 223.338629 
L 326.666798 225.067603 
L 326.991777 226.771688 
L 327.316757 228.450676 
L 327.641736 230.104382 
L 327.966716 231.732644 
L 328.291695 233.335321 
L 328.616675 234.912294 
L 328.941654 236.463466 
L 329.266634 237.98876 
L 329.591613 239.48812 
L 329.916593 240.961511 
L 330.241572 242.408916 
L 330.566552 243.830336 
L 330.891532 245.225792 
L 331.216511 246.595324 
L 331.541491 247.938987 
L 331.86647 249.256854 
L 332.19145 250.549015 
L 332.516429 251.815575 
L 332.841409 253.056653 
L 333.166388 254.272386 
L 333.491368 255.462923 
L 333.816347 256.628426 
L 334.141327 257.769071 
L 334.466306 258.885048 
L 334.791286 259.976556 
L 335.116265 261.043808 
L 335.441245 262.087027 
L 335.766224 263.106446 
L 336.091204 264.102308 
L 336.416183 265.074865 
L 336.741163 266.02438 
L 337.066143 266.95112 
L 337.391122 267.855364 
L 337.716102 268.737396 
L 338.041081 269.597506 
L 338.366061 270.435993 
L 338.69104 271.25316 
L 339.01602 272.049315 
L 339.340999 272.824771 
L 339.665979 273.579847 
L 339.990958 274.314862 
L 340.315938 275.030144 
L 340.640917 275.72602 
L 340.965897 276.40282 
L 341.290876 277.060878 
L 341.615856 277.700529 
L 341.940835 278.322108 
L 342.265815 278.925954 
L 342.590794 279.512405 
L 342.915774 280.0818 
L 343.240753 280.634476 
L 343.565733 281.170773 
L 343.890713 281.691028 
L 344.215692 282.195579 
L 344.540672 282.684761 
L 344.865651 283.158908 
L 345.190631 283.618354 
L 345.51561 284.06343 
L 345.84059 284.494463 
L 346.165569 284.91178 
L 346.490549 285.315705 
L 346.815528 285.706558 
L 347.140508 286.084657 
L 347.465487 286.450317 
L 347.790467 286.803848 
L 348.115446 287.145559 
L 348.440426 287.475753 
L 348.765405 287.79473 
L 349.090385 288.102786 
L 349.415364 288.400214 
L 349.740344 288.6873 
L 350.065324 288.964329 
L 350.390303 289.231579 
L 350.715283 289.489326 
L 351.040262 289.737838 
L 351.365242 289.977381 
L 351.690221 290.208217 
L 352.015201 290.430601 
L 352.34018 290.644784 
L 352.66516 290.851013 
L 352.990139 291.049529 
L 353.315119 291.240569 
L 353.640098 291.424364 
L 353.965078 291.601142 
L 354.290057 291.771125 
L 354.615037 291.934529 
L 354.940016 292.091568 
L 355.264996 292.242447 
L 355.589975 292.387371 
L 355.914955 292.526537 
L 356.239934 292.660137 
L 356.564914 292.78836 
L 356.889894 292.911389 
L 357.214873 293.029404 
L 357.539853 293.142578 
L 357.864832 293.251081 
L 358.189812 293.355078 
L 358.514791 293.454729 
L 358.839771 293.550191 
L 359.16475 293.641616 
L 359.48973 293.729151 
L 359.814709 293.812939 
L 360.139689 293.89312 
L 360.464668 293.969828 
L 360.789648 294.043195 
L 361.114627 294.113347 
L 361.439607 294.180408 
L 361.764586 294.244496 
L 362.089566 294.305729 
L 362.414545 294.364216 
L 362.739525 294.420067 
L 363.064505 294.473387 
L 363.389484 294.524277 
L 363.714464 294.572834 
L 364.039443 294.619154 
L 364.364423 294.663328 
L 364.689402 294.705445 
L 365.014382 294.74559 
L 365.339361 294.783844 
L 365.664341 294.820289 
L 365.98932 294.854999 
L 366.3143 294.888049 
L 366.639279 294.919511 
L 366.964259 294.949453 
L 367.289238 294.97794 
L 367.614218 295.005037 
L 367.939197 295.030804 
L 368.264177 295.055301 
L 368.589156 295.078583 
L 368.914136 295.100707 
L 369.239115 295.121723 
L 369.564095 295.141682 
L 369.889075 295.160632 
L 370.214054 295.178619 
L 370.539034 295.195689 
L 370.864013 295.211883 
L 371.188993 295.227243 
L 371.513972 295.241808 
L 371.838952 295.255615 
L 372.163931 295.268701 
L 372.488911 295.2811 
L 372.81389 295.292844 
L 373.13887 295.303967 
L 373.463849 295.314497 
L 373.788829 295.324464 
L 374.113808 295.333895 
L 374.438788 295.342818 
L 374.763767 295.351257 
L 375.088747 295.359236 
L 375.413726 295.366779 
L 375.738706 295.373908 
L 376.063686 295.380643 
L 376.388665 295.387005 
L 376.713645 295.393012 
L 377.038624 295.398684 
L 377.363604 295.404038 
L 377.688583 295.409089 
L 378.013563 295.413855 
L 378.338542 295.418349 
L 378.663522 295.422587 
L 378.988501 295.426582 
L 379.313481 295.430346 
L 379.63846 295.433893 
L 379.96344 295.437234 
L 380.288419 295.44038 
L 380.613399 295.443342 
L 380.938378 295.44613 
L 381.263358 295.448753 
L 381.588337 295.451221 
L 381.913317 295.453541 
L 382.238296 295.455724 
L 382.563276 295.457775 
L 382.888256 295.459703 
L 383.213235 295.461514 
L 383.538215 295.463215 
L 383.863194 295.464812 
L 384.188174 295.466312 
L 384.513153 295.46772 
L 384.838133 295.469041 
L 385.163112 295.47028 
L 385.488092 295.471442 
L 385.813071 295.472531 
L 386.138051 295.473553 
L 386.46303 295.47451 
L 386.78801 295.475407 
L 387.112989 295.476247 
L 387.437969 295.477033 
L 387.762948 295.47777 
L 388.087928 295.478459 
L 388.412907 295.479104 
L 388.737887 295.479707 
L 389.062867 295.480272 
L 389.387846 295.480799 
L 389.712826 295.481293 
L 390.037805 295.481754 
L 390.362785 295.482184 
L 390.687764 295.482586 
L 391.012744 295.482962 
L 391.337723 295.483313 
L 391.662703 295.48364 
L 391.987682 295.483946 
L 392.312662 295.484231 
L 392.637641 295.484496 
L 392.962621 295.484744 
L 393.2876 295.484975 
L 393.61258 295.485191 
L 393.937559 295.485391 
L 394.262539 295.485578 
L 394.587518 295.485752 
L 394.912498 295.485914 
L 395.237477 295.486065 
L 395.562457 295.486205 
L 395.887437 295.486336 
L 396.212416 295.486457 
L 396.537396 295.48657 
L 396.862375 295.486675 
L 397.187355 295.486773 
L 397.512334 295.486863 
L 397.837314 295.486948 
L 398.162293 295.487026 
L 398.487273 295.487098 
L 398.487273 295.488 
L 398.487273 295.488 
L 398.162293 295.488 
L 397.837314 295.488 
L 397.512334 295.488 
L 397.187355 295.488 
L 396.862375 295.488 
L 396.537396 295.488 
L 396.212416 295.488 
L 395.887437 295.488 
L 395.562457 295.488 
L 395.237477 295.488 
L 394.912498 295.488 
L 394.587518 295.488 
L 394.262539 295.488 
L 393.937559 295.488 
L 393.61258 295.488 
L 393.2876 295.488 
L 392.962621 295.488 
L 392.637641 295.488 
L 392.312662 295.488 
L 391.987682 295.488 
L 391.662703 295.488 
L 391.337723 295.488 
L 391.012744 295.488 
L 390.687764 295.488 
L 390.362785 295.488 
L 390.037805 295.488 
L 389.712826 295.488 
L 389.387846 295.488 
L 389.062867 295.488 
L 388.737887 295.488 
L 388.412907 295.488 
L 388.087928 295.488 
L 387.762948 295.488 
L 387.437969 295.488 
L 387.112989 295.488 
L 386.78801 295.488 
L 386.46303 295.488 
L 386.138051 295.488 
L 385.813071 295.488 
L 385.488092 295.488 
L 385.163112 295.488 
L 384.838133 295.488 
L 384.513153 295.488 
L 384.188174 295.488 
L 383.863194 295.488 
L 383.538215 295.488 
L 383.213235 295.488 
L 382.888256 295.488 
L 382.563276 295.488 
L 382.238296 295.488 
L 381.913317 295.488 
L 381.588337 295.488 
L 381.263358 295.488 
L 380.938378 295.488 
L 380.613399 295.488 
L 380.288419 295.488 
L 379.96344 295.488 
L 379.63846 295.488 
L 379.313481 295.488 
L 378.988501 295.488 
L 378.663522 295.488 
L 378.338542 295.488 
L 378.013563 295.488 
L 377.688583 295.488 
L 377.363604 295.488 
L 377.038624 295.488 
L 376.713645 295.488 
L 376.388665 295.488 
L 376.063686 295.488 
L 375.738706 295.488 
L 375.413726 295.488 
L 375.088747 295.488 
L 374.763767 295.488 
L 374.438788 295.488 
L 374.113808 295.488 
L 373.788829 295.488 
L 373.463849 295.488 
L 373.13887 295.488 
L 372.81389 295.488 
L 372.488911 295.488 
L 372.163931 295.488 
L 371.838952 295.488 
L 371.513972 295.488 
L 371.188993 295.488 
L 370.864013 295.488 
L 370.539034 295.488 
L 370.214054 295.488 
L 369.889075 295.488 
L 369.564095 295.488 
L 369.239115 295.488 
L 368.914136 295.488 
L 368.589156 295.488 
L 368.264177 295.488 
L 367.939197 295.488 
L 367.614218 295.488 
L 367.289238 295.488 
L 366.964259 295.488 
L 366.639279 295.488 
L 366.3143 295.488 
L 365.98932 295.488 
L 365.664341 295.488 
L 365.339361 295.488 
L 365.014382 295.488 
L 364.689402 295.488 
L 364.364423 295.488 
L 364.039443 295.488 
L 363.714464 295.488 
L 363.389484 295.488 
L 363.064505 295.488 
L 362.739525 295.488 
L 362.414545 295.488 
L 362.089566 295.488 
L 361.764586 295.488 
L 361.439607 295.488 
L 361.114627 295.488 
L 360.789648 295.488 
L 360.464668 295.488 
L 360.139689 295.488 
L 359.814709 295.488 
L 359.48973 295.488 
L 359.16475 295.488 
L 358.839771 295.488 
L 358.514791 295.488 
L 358.189812 295.488 
L 357.864832 295.488 
L 357.539853 295.488 
L 357.214873 295.488 
L 356.889894 295.488 
L 356.564914 295.488 
L 356.239934 295.488 
L 355.914955 295.488 
L 355.589975 295.488 
L 355.264996 295.488 
L 354.940016 295.488 
L 354.615037 295.488 
L 354.290057 295.488 
L 353.965078 295.488 
L 353.640098 295.488 
L 353.315119 295.488 
L 352.990139 295.488 
L 352.66516 295.488 
L 352.34018 295.488 
L 352.015201 295.488 
L 351.690221 295.488 
L 351.365242 295.488 
L 351.040262 295.488 
L 350.715283 295.488 
L 350.390303 295.488 
L 350.065324 295.488 
L 349.740344 295.488 
L 349.415364 295.488 
L 349.090385 295.488 
L 348.765405 295.488 
L 348.440426 295.488 
L 348.115446 295.488 
L 347.790467 295.488 
L 347.465487 295.488 
L 347.140508 295.488 
L 346.815528 295.488 
L 346.490549 295.488 
L 346.165569 295.488 
L 345.84059 295.488 
L 345.51561 295.488 
L 345.190631 295.488 
L 344.865651 295.488 
L 344.540672 295.488 
L 344.215692 295.488 
L 343.890713 295.488 
L 343.565733 295.488 
L 343.240753 295.488 
L 342.915774 295.488 
L 342.590794 295.488 
L 342.265815 295.488 
L 341.940835 295.488 
L 341.615856 295.488 
L 341.290876 295.488 
L 340.965897 295.488 
L 340.640917 295.488 
L 340.315938 295.488 
L 339.990958 295.488 
L 339.665979 295.488 
L 339.340999 295.488 
L 339.01602 295.488 
L 338.69104 295.488 
L 338.366061 295.488 
L 338.041081 295.488 
L 337.716102 295.488 
L 337.391122 295.488 
L 337.066143 295.488 
L 336.741163 295.488 
L 336.416183 295.488 
L 336.091204 295.488 
L 335.766224 295.488 
L 335.441245 295.488 
L 335.116265 295.488 
L 334.791286 295.488 
L 334.466306 295.488 
L 334.141327 295.488 
L 333.816347 295.488 
L 333.491368 295.488 
L 333.166388 295.488 
L 332.841409 295.488 
L 332.516429 295.488 
L 332.19145 295.488 
L 331.86647 295.488 
L 331.541491 295.488 
L 331.216511 295.488 
L 330.891532 295.488 
L 330.566552 295.488 
L 330.241572 295.488 
L 329.916593 295.488 
L 329.591613 295.488 
L 329.266634 295.488 
L 328.941654 295.488 
L 328.616675 295.488 
L 328.291695 295.488 
L 327.966716 295.488 
L 327.641736 295.488 
L 327.316757 295.488 
L 326.991777 295.488 
L 326.666798 295.488 
L 326.341818 295.488 
L 326.016839 295.488 
L 325.691859 295.488 
L 325.36688 295.488 
L 325.0419 295.488 
L 324.716921 295.488 
L 324.391941 295.488 
L 324.066962 295.488 
L 323.741982 295.488 
L 323.417002 295.488 
L 323.092023 295.488 
L 322.767043 295.488 
L 322.442064 295.488 
L 322.117084 295.488 
L 321.792105 295.488 
L 321.467125 295.488 
L 321.142146 295.488 
L 320.817166 295.488 
L 320.492187 295.488 
L 320.167207 295.488 
L 319.842228 295.488 
L 319.517248 295.488 
L 319.192269 295.488 
L 318.867289 295.488 
L 318.54231 295.488 
L 318.21733 295.488 
L 317.892351 295.488 
L 317.567371 295.488 
L 317.242391 295.488 
L 316.917412 295.488 
L 316.592432 295.488 
L 316.267453 295.488 
L 315.942473 295.488 
L 315.617494 295.488 
L 315.292514 295.488 
L 314.967535 295.488 
L 314.642555 295.488 
L 314.317576 295.488 
L 313.992596 295.488 
L 313.667617 295.488 
L 313.342637 295.488 
L 313.017658 295.488 
L 312.692678 295.488 
L 312.367699 295.488 
L 312.042719 295.488 
L 311.71774 295.488 
L 311.39276 295.488 
L 311.067781 295.488 
L 310.742801 295.488 
L 310.417821 295.488 
L 310.092842 295.488 
L 309.767862 295.488 
L 309.442883 295.488 
L 309.117903 295.488 
L 308.792924 295.488 
L 308.467944 295.488 
L 308.142965 295.488 
L 307.817985 295.488 
L 307.493006 295.488 
L 307.168026 295.488 
L 306.843047 295.488 
L 306.518067 295.488 
L 306.193088 295.488 
L 305.868108 295.488 
L 305.543129 295.488 
L 305.218149 295.488 
L 304.89317 295.488 
L 304.56819 295.488 
L 304.24321 295.488 
L 303.918231 295.488 
L 303.593251 295.488 
L 303.268272 295.488 
L 302.943292 295.488 
L 302.618313 295.488 
L 302.293333 295.488 
L 301.968354 295.488 
L 301.643374 295.488 
L 301.318395 295.488 
L 300.993415 295.488 
L 300.668436 295.488 
L 300.343456 295.488 
L 300.018477 295.488 
L 299.693497 295.488 
L 299.368518 295.488 
L 299.043538 295.488 
L 298.718559 295.488 
L 298.393579 295.488 
L 298.0686 295.488 
L 297.74362 295.488 
L 297.41864 295.488 
L 297.093661 295.488 
L 296.768681 295.488 
L 296.443702 295.488 
L 296.118722 295.488 
L 295.793743 295.488 
L 295.468763 295.488 
L 295.143784 295.488 
L 294.818804 295.488 
L 294.493825 295.488 
L 294.168845 295.488 
L 293.843866 295.488 
L 293.518886 295.488 
L 293.193907 295.488 
L 292.868927 295.488 
L 292.543948 295.488 
L 292.218968 295.488 
L 291.893989 295.488 
L 291.569009 295.488 
L 291.244029 295.488 
L 290.91905 295.488 
L 290.59407 295.488 
L 290.269091 295.488 
L 289.944111 295.488 
L 289.619132 295.488 
L 289.294152 295.488 
L 288.969173 295.488 
L 288.644193 295.488 
L 288.319214 295.488 
L 287.994234 295.488 
L 287.669255 295.488 
L 287.344275 295.488 
L 287.019296 295.488 
L 286.694316 295.488 
L 286.369337 295.488 
L 286.044357 295.488 
L 285.719378 295.488 
L 285.394398 295.488 
L 285.069419 295.488 
L 284.744439 295.488 
L 284.419459 295.488 
L 284.09448 295.488 
L 283.7695 295.488 
L 283.444521 295.488 
L 283.119541 295.488 
L 282.794562 295.488 
L 282.469582 295.488 
L 282.144603 295.488 
L 281.819623 295.488 
L 281.494644 295.488 
L 281.169664 295.488 
L 280.844685 295.488 
L 280.519705 295.488 
L 280.194726 295.488 
L 279.869746 295.488 
L 279.544767 295.488 
L 279.219787 295.488 
L 278.894808 295.488 
L 278.569828 295.488 
L 278.244848 295.488 
L 277.919869 295.488 
L 277.594889 295.488 
L 277.26991 295.488 
L 276.94493 295.488 
L 276.619951 295.488 
L 276.294971 295.488 
L 275.969992 295.488 
L 275.645012 295.488 
L 275.320033 295.488 
L 274.995053 295.488 
L 274.670074 295.488 
L 274.345094 295.488 
L 274.020115 295.488 
L 273.695135 295.488 
L 273.370156 295.488 
L 273.045176 295.488 
L 272.720197 295.488 
L 272.395217 295.488 
L 272.070238 295.488 
L 271.745258 295.488 
L 271.420278 295.488 
L 271.095299 295.488 
L 270.770319 295.488 
L 270.44534 295.488 
L 270.12036 295.488 
L 269.795381 295.488 
L 269.470401 295.488 
L 269.145422 295.488 
L 268.820442 295.488 
L 268.495463 295.488 
L 268.170483 295.488 
L 267.845504 295.488 
L 267.520524 295.488 
L 267.195545 295.488 
L 266.870565 295.488 
L 266.545586 295.488 
L 266.220606 295.488 
L 265.895627 295.488 
L 265.570647 295.488 
L 265.245667 295.488 
L 264.920688 295.488 
L 264.595708 295.488 
L 264.270729 295.488 
L 263.945749 295.488 
L 263.62077 295.488 
L 263.29579 295.488 
L 262.970811 295.488 
L 262.645831 295.488 
L 262.320852 295.488 
L 261.995872 295.488 
L 261.670893 295.488 
L 261.345913 295.488 
L 261.020934 295.488 
L 260.695954 295.488 
L 260.370975 295.488 
L 260.045995 295.488 
L 259.721016 295.488 
L 259.396036 295.488 
L 259.071057 295.488 
L 258.746077 295.488 
L 258.421097 295.488 
L 258.096118 295.488 
L 257.771138 295.488 
L 257.446159 295.488 
L 257.121179 295.488 
L 256.7962 295.488 
L 256.47122 295.488 
L 256.146241 295.488 
L 255.821261 295.488 
L 255.496282 295.488 
L 255.171302 295.488 
L 254.846323 295.488 
L 254.521343 295.488 
L 254.196364 295.488 
L 253.871384 295.488 
L 253.546405 295.488 
L 253.221425 295.488 
L 252.896446 295.488 
L 252.571466 295.488 
L 252.246486 295.488 
L 251.921507 295.488 
L 251.596527 295.488 
L 251.271548 295.488 
L 250.946568 295.488 
L 250.621589 295.488 
L 250.296609 295.488 
L 249.97163 295.488 
L 249.64665 295.488 
L 249.321671 295.488 
L 248.996691 295.488 
L 248.671712 295.488 
L 248.346732 295.488 
L 248.021753 295.488 
L 247.696773 295.488 
L 247.371794 295.488 
L 247.046814 295.488 
L 246.721835 295.488 
L 246.396855 295.488 
L 246.071876 295.488 
L 245.746896 295.488 
L 245.421916 295.488 
L 245.096937 295.488 
L 244.771957 295.488 
L 244.446978 295.488 
L 244.121998 295.488 
L 243.797019 295.488 
L 243.472039 295.488 
L 243.14706 295.488 
L 242.82208 295.488 
L 242.497101 295.488 
L 242.172121 295.488 
L 241.847142 295.488 
L 241.522162 295.488 
L 241.197183 295.488 
L 240.872203 295.488 
L 240.547224 295.488 
L 240.222244 295.488 
L 239.897265 295.488 
L 239.572285 295.488 
L 239.247305 295.488 
L 238.922326 295.488 
L 238.597346 295.488 
L 238.272367 295.488 
L 237.947387 295.488 
L 237.622408 295.488 
L 237.297428 295.488 
L 236.972449 295.488 
L 236.647469 295.488 
L 236.32249 295.488 
L 235.99751 295.488 
L 235.672531 295.488 
L 235.347551 295.488 
L 235.022572 295.488 
L 234.697592 295.488 
L 234.372613 295.488 
L 234.047633 295.488 
L 233.722654 295.488 
L 233.397674 295.488 
L 233.072695 295.488 
L 232.747715 295.488 
L 232.422735 295.488 
L 232.097756 295.488 
L 231.772776 295.488 
L 231.447797 295.488 
L 231.122817 295.488 
L 230.797838 295.488 
L 230.472858 295.488 
L 230.147879 295.488 
L 229.822899 295.488 
L 229.49792 295.488 
L 229.17294 295.488 
L 228.847961 295.488 
L 228.522981 295.488 
L 228.198002 295.488 
L 227.873022 295.488 
L 227.548043 295.488 
L 227.223063 295.488 
L 226.898084 295.488 
L 226.573104 295.488 
L 226.248124 295.488 
L 225.923145 295.488 
L 225.598165 295.488 
L 225.273186 295.488 
L 224.948206 295.488 
L 224.623227 295.488 
L 224.298247 295.488 
L 223.973268 295.488 
L 223.648288 295.488 
L 223.323309 295.488 
L 222.998329 295.488 
L 222.67335 295.488 
L 222.34837 295.488 
L 222.023391 295.488 
L 221.698411 295.488 
L 221.373432 295.488 
L 221.048452 295.488 
L 220.723473 295.488 
L 220.398493 295.488 
L 220.073514 295.488 
L 219.748534 295.488 
L 219.423554 295.488 
L 219.098575 295.488 
L 218.773595 295.488 
L 218.448616 295.488 
L 218.123636 295.488 
L 217.798657 295.488 
L 217.473677 295.488 
L 217.148698 295.488 
L 216.823718 295.488 
L 216.498739 295.488 
L 216.173759 295.488 
L 215.84878 295.488 
L 215.5238 295.488 
L 215.198821 295.488 
L 214.873841 295.488 
L 214.548862 295.488 
L 214.223882 295.488 
L 213.898903 295.488 
L 213.573923 295.488 
L 213.248943 295.488 
L 212.923964 295.488 
L 212.598984 295.488 
L 212.274005 295.488 
L 211.949025 295.488 
L 211.624046 295.488 
L 211.299066 295.488 
L 210.974087 295.488 
L 210.649107 295.488 
L 210.324128 295.488 
L 209.999148 295.488 
L 209.674169 295.488 
L 209.349189 295.488 
L 209.02421 295.488 
L 208.69923 295.488 
L 208.374251 295.488 
L 208.049271 295.488 
L 207.724292 295.488 
L 207.399312 295.488 
L 207.074333 295.488 
L 206.749353 295.488 
L 206.424373 295.488 
L 206.099394 295.488 
L 205.774414 295.488 
L 205.449435 295.488 
L 205.124455 295.488 
L 204.799476 295.488 
L 204.474496 295.488 
L 204.149517 295.488 
L 203.824537 295.488 
L 203.499558 295.488 
L 203.174578 295.488 
L 202.849599 295.488 
L 202.524619 295.488 
L 202.19964 295.488 
L 201.87466 295.488 
L 201.549681 295.488 
L 201.224701 295.488 
L 200.899722 295.488 
L 200.574742 295.488 
L 200.249762 295.488 
L 199.924783 295.488 
L 199.599803 295.488 
L 199.274824 295.488 
L 198.949844 295.488 
L 198.624865 295.488 
L 198.299885 295.488 
L 197.974906 295.488 
L 197.649926 295.488 
L 197.324947 295.488 
L 196.999967 295.488 
L 196.674988 295.488 
L 196.350008 295.488 
L 196.025029 295.488 
L 195.700049 295.488 
L 195.37507 295.488 
L 195.05009 295.488 
L 194.725111 295.488 
L 194.400131 295.488 
L 194.075152 295.488 
L 193.750172 295.488 
L 193.425192 295.488 
L 193.100213 295.488 
L 192.775233 295.488 
L 192.450254 295.488 
L 192.125274 295.488 
L 191.800295 295.488 
L 191.475315 295.488 
L 191.150336 295.488 
L 190.825356 295.488 
L 190.500377 295.488 
L 190.175397 295.488 
L 189.850418 295.488 
L 189.525438 295.488 
L 189.200459 295.488 
L 188.875479 295.488 
L 188.5505 295.488 
L 188.22552 295.488 
L 187.900541 295.488 
L 187.575561 295.488 
L 187.250581 295.488 
L 186.925602 295.488 
L 186.600622 295.488 
L 186.275643 295.488 
L 185.950663 295.488 
L 185.625684 295.488 
L 185.300704 295.488 
L 184.975725 295.488 
L 184.650745 295.488 
L 184.325766 295.488 
L 184.000786 295.488 
L 183.675807 295.488 
L 183.350827 295.488 
L 183.025848 295.488 
L 182.700868 295.488 
L 182.375889 295.488 
L 182.050909 295.488 
L 181.72593 295.488 
L 181.40095 295.488 
L 181.075971 295.488 
L 180.750991 295.488 
L 180.426011 295.488 
L 180.101032 295.488 
L 179.776052 295.488 
L 179.451073 295.488 
L 179.126093 295.488 
L 178.801114 295.488 
L 178.476134 295.488 
L 178.151155 295.488 
L 177.826175 295.488 
L 177.501196 295.488 
L 177.176216 295.488 
L 176.851237 295.488 
L 176.526257 295.488 
L 176.201278 295.488 
L 175.876298 295.488 
L 175.551319 295.488 
L 175.226339 295.488 
L 174.90136 295.488 
L 174.57638 295.488 
L 174.2514 295.488 
L 173.926421 295.488 
L 173.601441 295.488 
L 173.276462 295.488 
L 172.951482 295.488 
L 172.626503 295.488 
L 172.301523 295.488 
L 171.976544 295.488 
L 171.651564 295.488 
L 171.326585 295.488 
L 171.001605 295.488 
L 170.676626 295.488 
L 170.351646 295.488 
L 170.026667 295.488 
L 169.701687 295.488 
L 169.376708 295.488 
L 169.051728 295.488 
L 168.726749 295.488 
L 168.401769 295.488 
L 168.07679 295.488 
L 167.75181 295.488 
L 167.42683 295.488 
L 167.101851 295.488 
L 166.776871 295.488 
L 166.451892 295.488 
L 166.126912 295.488 
L 165.801933 295.488 
L 165.476953 295.488 
L 165.151974 295.488 
L 164.826994 295.488 
L 164.502015 295.488 
L 164.177035 295.488 
L 163.852056 295.488 
L 163.527076 295.488 
L 163.202097 295.488 
L 162.877117 295.488 
L 162.552138 295.488 
L 162.227158 295.488 
L 161.902179 295.488 
L 161.577199 295.488 
L 161.252219 295.488 
L 160.92724 295.488 
L 160.60226 295.488 
L 160.277281 295.488 
L 159.952301 295.488 
L 159.627322 295.488 
L 159.302342 295.488 
L 158.977363 295.488 
L 158.652383 295.488 
L 158.327404 295.488 
L 158.002424 295.488 
L 157.677445 295.488 
L 157.352465 295.488 
L 157.027486 295.488 
L 156.702506 295.488 
L 156.377527 295.488 
L 156.052547 295.488 
L 155.727568 295.488 
L 155.402588 295.488 
L 155.077609 295.488 
L 154.752629 295.488 
L 154.427649 295.488 
L 154.10267 295.488 
L 153.77769 295.488 
L 153.452711 295.488 
L 153.127731 295.488 
L 152.802752 295.488 
L 152.477772 295.488 
L 152.152793 295.488 
L 151.827813 295.488 
L 151.502834 295.488 
L 151.177854 295.488 
L 150.852875 295.488 
L 150.527895 295.488 
L 150.202916 295.488 
L 149.877936 295.488 
L 149.552957 295.488 
L 149.227977 295.488 
L 148.902998 295.488 
L 148.578018 295.488 
L 148.253038 295.488 
L 147.928059 295.488 
L 147.603079 295.488 
L 147.2781 295.488 
L 146.95312 295.488 
L 146.628141 295.488 
L 146.303161 295.488 
L 145.978182 295.488 
L 145.653202 295.488 
L 145.328223 295.488 
L 145.003243 295.488 
L 144.678264 295.488 
L 144.353284 295.488 
L 144.028305 295.488 
L 143.703325 295.488 
L 143.378346 295.488 
L 143.053366 295.488 
L 142.728387 295.488 
L 142.403407 295.488 
L 142.078428 295.488 
L 141.753448 295.488 
L 141.428468 295.488 
L 141.103489 295.488 
L 140.778509 295.488 
L 140.45353 295.488 
L 140.12855 295.488 
L 139.803571 295.488 
L 139.478591 295.488 
L 139.153612 295.488 
L 138.828632 295.488 
L 138.503653 295.488 
L 138.178673 295.488 
L 137.853694 295.488 
L 137.528714 295.488 
L 137.203735 295.488 
L 136.878755 295.488 
L 136.553776 295.488 
L 136.228796 295.488 
L 135.903817 295.488 
L 135.578837 295.488 
L 135.253857 295.488 
L 134.928878 295.488 
L 134.603898 295.488 
L 134.278919 295.488 
L 133.953939 295.488 
L 133.62896 295.488 
L 133.30398 295.488 
L 132.979001 295.488 
L 132.654021 295.488 
L 132.329042 295.488 
L 132.004062 295.488 
L 131.679083 295.488 
L 131.354103 295.488 
L 131.029124 295.488 
L 130.704144 295.488 
L 130.379165 295.488 
L 130.054185 295.488 
L 129.729206 295.488 
L 129.404226 295.488 
L 129.079247 295.488 
L 128.754267 295.488 
L 128.429287 295.488 
L 128.104308 295.488 
L 127.779328 295.488 
L 127.454349 295.488 
L 127.129369 295.488 
L 126.80439 295.488 
L 126.47941 295.488 
L 126.154431 295.488 
L 125.829451 295.488 
L 125.504472 295.488 
L 125.179492 295.488 
L 124.854513 295.488 
L 124.529533 295.488 
L 124.204554 295.488 
L 123.879574 295.488 
L 123.554595 295.488 
L 123.229615 295.488 
L 122.904636 295.488 
L 122.579656 295.488 
L 122.254676 295.488 
L 121.929697 295.488 
L 121.604717 295.488 
L 121.279738 295.488 
L 120.954758 295.488 
L 120.629779 295.488 
L 120.304799 295.488 
L 119.97982 295.488 
L 119.65484 295.488 
L 119.329861 295.488 
L 119.004881 295.488 
L 118.679902 295.488 
L 118.354922 295.488 
L 118.029943 295.488 
L 117.704963 295.488 
L 117.379984 295.488 
L 117.055004 295.488 
L 116.730025 295.488 
L 116.405045 295.488 
L 116.080066 295.488 
L 115.755086 295.488 
L 115.430106 295.488 
L 115.105127 295.488 
L 114.780147 295.488 
L 114.455168 295.488 
L 114.130188 295.488 
L 113.805209 295.488 
L 113.480229 295.488 
L 113.15525 295.488 
L 112.83027 295.488 
L 112.505291 295.488 
L 112.180311 295.488 
L 111.855332 295.488 
L 111.530352 295.488 
L 111.205373 295.488 
L 110.880393 295.488 
L 110.555414 295.488 
L 110.230434 295.488 
L 109.905455 295.488 
L 109.580475 295.488 
L 109.255495 295.488 
L 108.930516 295.488 
L 108.605536 295.488 
L 108.280557 295.488 
L 107.955577 295.488 
L 107.630598 295.488 
L 107.305618 295.488 
L 106.980639 295.488 
L 106.655659 295.488 
L 106.33068 295.488 
L 106.0057 295.488 
L 105.680721 295.488 
L 105.355741 295.488 
L 105.030762 295.488 
L 104.705782 295.488 
L 104.380803 295.488 
L 104.055823 295.488 
L 103.730844 295.488 
L 103.405864 295.488 
L 103.080885 295.488 
L 102.755905 295.488 
L 102.430925 295.488 
L 102.105946 295.488 
L 101.780966 295.488 
L 101.455987 295.488 
L 101.131007 295.488 
L 100.806028 295.488 
L 100.481048 295.488 
L 100.156069 295.488 
L 99.831089 295.488 
L 99.50611 295.488 
L 99.18113 295.488 
L 98.856151 295.488 
L 98.531171 295.488 
L 98.206192 295.488 
L 97.881212 295.488 
L 97.556233 295.488 
L 97.231253 295.488 
L 96.906274 295.488 
L 96.581294 295.488 
L 96.256314 295.488 
L 95.931335 295.488 
L 95.606355 295.488 
L 95.281376 295.488 
L 94.956396 295.488 
L 94.631417 295.488 
L 94.306437 295.488 
L 93.981458 295.488 
L 93.656478 295.488 
L 93.331499 295.488 
L 93.006519 295.488 
L 92.68154 295.488 
L 92.35656 295.488 
L 92.031581 295.488 
L 91.706601 295.488 
L 91.381622 295.488 
L 91.056642 295.488 
L 90.731663 295.488 
L 90.406683 295.488 
L 90.081704 295.488 
L 89.756724 295.488 
L 89.431744 295.488 
L 89.106765 295.488 
L 88.781785 295.488 
L 88.456806 295.488 
L 88.131826 295.488 
L 87.806847 295.488 
L 87.481867 295.488 
L 87.156888 295.488 
L 86.831908 295.488 
L 86.506929 295.488 
L 86.181949 295.488 
L 85.85697 295.488 
L 85.53199 295.488 
L 85.207011 295.488 
L 84.882031 295.488 
L 84.557052 295.488 
L 84.232072 295.488 
L 83.907093 295.488 
L 83.582113 295.488 
L 83.257133 295.488 
L 82.932154 295.488 
L 82.607174 295.488 
L 82.282195 295.488 
L 81.957215 295.488 
L 81.632236 295.488 
L 81.307256 295.488 
L 80.982277 295.488 
L 80.657297 295.488 
L 80.332318 295.488 
L 80.007338 295.488 
L 79.682359 295.488 
L 79.357379 295.488 
L 79.0324 295.488 
L 78.70742 295.488 
L 78.382441 295.488 
L 78.057461 295.488 
L 77.732482 295.488 
L 77.407502 295.488 
L 77.082523 295.488 
L 76.757543 295.488 
L 76.432563 295.488 
L 76.107584 295.488 
L 75.782604 295.488 
L 75.457625 295.488 
L 75.132645 295.488 
L 74.807666 295.488 
L 74.482686 295.488 
L 74.157707 295.488 
L 73.832727 295.488 
z
" clip-path="url(#p8fb945e1bc)" style="fill: url(#h14306ac4ea); stroke: #000000"/>
   </g>
   <g id="matplotlib.axis_1">
    <g id="xtick_1">
     <g id="line2d_1">
      <defs>
       <path id="mb84c8742e7" d="M 0 0 
L 0 3.5 
" style="stroke: #000000; stroke-width: 0.8"/>
      </defs>
      <g>
       <use xlink:href="#mb84c8742e7" x="84.305455" y="307.584" style="stroke: #000000; stroke-width: 0.8"/>
      </g>
     </g>
     <g id="text_1">
      <!-- 0 -->
      <g transform="translate(81.124205 322.182437) scale(0.1 -0.1)">
       <defs>
        <path id="DejaVuSans-30" d="M 2034 4250 
Q 1547 4250 1301 3770 
Q 1056 3291 1056 2328 
Q 1056 1369 1301 889 
Q 1547 409 2034 409 
Q 2525 409 2770 889 
Q 3016 1369 3016 2328 
Q 3016 3291 2770 3770 
Q 2525 4250 2034 4250 
z
M 2034 4750 
Q 2819 4750 3233 4129 
Q 3647 3509 3647 2328 
Q 3647 1150 3233 529 
Q 2819 -91 2034 -91 
Q 1250 -91 836 529 
Q 422 1150 422 2328 
Q 422 3509 836 4129 
Q 1250 4750 2034 4750 
z
" transform="scale(0.015625)"/>
       </defs>
       <use xlink:href="#DejaVuSans-30"/>
      </g>
     </g>
    </g>
    <g id="xtick_2">
     <g id="line2d_2">
      <g>
       <use xlink:href="#mb84c8742e7" x="189.032727" y="307.584" style="stroke: #000000; stroke-width: 0.8"/>
      </g>
     </g>
     <g id="text_2">
      <!-- 50 -->
      <g transform="translate(182.670227 322.182437) scale(0.1 -0.1)">
       <defs>
        <path id="DejaVuSans-35" d="M 691 4666 
L 3169 4666 
L 3169 4134 
L 1269 4134 
L 1269 2991 
Q 1406 3038 1543 3061 
Q 1681 3084 1819 3084 
Q 2600 3084 3056 2656 
Q 3513 2228 3513 1497 
Q 3513 744 3044 326 
Q 2575 -91 1722 -91 
Q 1428 -91 1123 -41 
Q 819 9 494 109 
L 494 744 
Q 775 591 1075 516 
Q 1375 441 1709 441 
Q 2250 441 2565 725 
Q 2881 1009 2881 1497 
Q 2881 1984 2565 2268 
Q 2250 2553 1709 2553 
Q 1456 2553 1204 2497 
Q 953 2441 691 2322 
L 691 4666 
z
" transform="scale(0.015625)"/>
       </defs>
       <use xlink:href="#DejaVuSans-35"/>
       <use xlink:href="#DejaVuSans-30" x="63.623047"/>
      </g>
     </g>
    </g>
    <g id="xtick_3">
     <g id="line2d_3">
      <g>
       <use xlink:href="#mb84c8742e7" x="293.76" y="307.584" style="stroke: #000000; stroke-width: 0.8"/>
      </g>
     </g>
     <g id="text_3">
      <!-- 100 -->
      <g transform="translate(284.21625 322.182437) scale(0.1 -0.1)">
       <defs>
        <path id="DejaVuSans-31" d="M 794 531 
L 1825 531 
L 1825 4091 
L 703 3866 
L 703 4441 
L 1819 4666 
L 2450 4666 
L 2450 531 
L 3481 531 
L 3481 0 
L 794 0 
L 794 531 
z
" transform="scale(0.015625)"/>
       </defs>
       <use xlink:href="#DejaVuSans-31"/>
       <use xlink:href="#DejaVuSans-30" x="63.623047"/>
       <use xlink:href="#DejaVuSans-30" x="127.246094"/>
      </g>
     </g>
    </g>
    <g id="xtick_4">
     <g id="line2d_4">
      <g>
       <use xlink:href="#mb84c8742e7" x="398.487273" y="307.584" style="stroke: #000000; stroke-width: 0.8"/>
      </g>
     </g>
     <g id="text_4">
      <!-- 150 -->
      <g transform="translate(388.943523 322.182437) scale(0.1 -0.1)">
       <use xlink:href="#DejaVuSans-31"/>
       <use xlink:href="#DejaVuSans-35" x="63.623047"/>
       <use xlink:href="#DejaVuSans-30" x="127.246094"/>
      </g>
     </g>
    </g>
    <g id="text_5">
     <!-- Position (cm) -->
     <g transform="translate(203.585781 335.860562) scale(0.1 -0.1)">
      <defs>
       <path id="DejaVuSans-50" d="M 1259 4147 
L 1259 2394 
L 2053 2394 
Q 2494 2394 2734 2622 
Q 2975 2850 2975 3272 
Q 2975 3691 2734 3919 
Q 2494 4147 2053 4147 
L 1259 4147 
z
M 628 4666 
L 2053 4666 
Q 2838 4666 3239 4311 
Q 3641 3956 3641 3272 
Q 3641 2581 3239 2228 
Q 2838 1875 2053 1875 
L 1259 1875 
L 1259 0 
L 628 0 
L 628 4666 
z
" transform="scale(0.015625)"/>
       <path id="DejaVuSans-6f" d="M 1959 3097 
Q 1497 3097 1228 2736 
Q 959 2375 959 1747 
Q 959 1119 1226 758 
Q 1494 397 1959 397 
Q 2419 397 2687 759 
Q 2956 1122 2956 1747 
Q 2956 2369 2687 2733 
Q 2419 3097 1959 3097 
z
M 1959 3584 
Q 2709 3584 3137 3096 
Q 3566 2609 3566 1747 
Q 3566 888 3137 398 
Q 2709 -91 1959 -91 
Q 1206 -91 779 398 
Q 353 888 353 1747 
Q 353 2609 779 3096 
Q 1206 3584 1959 3584 
z
" transform="scale(0.015625)"/>
       <path id="DejaVuSans-73" d="M 2834 3397 
L 2834 2853 
Q 2591 2978 2328 3040 
Q 2066 3103 1784 3103 
Q 1356 3103 1142 2972 
Q 928 2841 928 2578 
Q 928 2378 1081 2264 
Q 1234 2150 1697 2047 
L 1894 2003 
Q 2506 1872 2764 1633 
Q 3022 1394 3022 966 
Q 3022 478 2636 193 
Q 2250 -91 1575 -91 
Q 1294 -91 989 -36 
Q 684 19 347 128 
L 347 722 
Q 666 556 975 473 
Q 1284 391 1588 391 
Q 1994 391 2212 530 
Q 2431 669 2431 922 
Q 2431 1156 2273 1281 
Q 2116 1406 1581 1522 
L 1381 1569 
Q 847 1681 609 1914 
Q 372 2147 372 2553 
Q 372 3047 722 3315 
Q 1072 3584 1716 3584 
Q 2034 3584 2315 3537 
Q 2597 3491 2834 3397 
z
" transform="scale(0.015625)"/>
       <path id="DejaVuSans-69" d="M 603 3500 
L 1178 3500 
L 1178 0 
L 603 0 
L 603 3500 
z
M 603 4863 
L 1178 4863 
L 1178 4134 
L 603 4134 
L 603 4863 
z
" transform="scale(0.015625)"/>
       <path id="DejaVuSans-74" d="M 1172 4494 
L 1172 3500 
L 2356 3500 
L 2356 3053 
L 1172 3053 
L 1172 1153 
Q 1172 725 1289 603 
Q 1406 481 1766 481 
L 2356 481 
L 2356 0 
L 1766 0 
Q 1100 0 847 248 
Q 594 497 594 1153 
L 594 3053 
L 172 3053 
L 172 3500 
L 594 3500 
L 594 4494 
L 1172 4494 
z
" transform="scale(0.015625)"/>
       <path id="DejaVuSans-6e" d="M 3513 2113 
L 3513 0 
L 2938 0 
L 2938 2094 
Q 2938 2591 2744 2837 
Q 2550 3084 2163 3084 
Q 1697 3084 1428 2787 
Q 1159 2491 1159 1978 
L 1159 0 
L 581 0 
L 581 3500 
L 1159 3500 
L 1159 2956 
Q 1366 3272 1645 3428 
Q 1925 3584 2291 3584 
Q 2894 3584 3203 3211 
Q 3513 2838 3513 2113 
z
" transform="scale(0.015625)"/>
       <path id="DejaVuSans-20" transform="scale(0.015625)"/>
       <path id="DejaVuSans-28" d="M 1984 4856 
Q 1566 4138 1362 3434 
Q 1159 2731 1159 2009 
Q 1159 1288 1364 580 
Q 1569 -128 1984 -844 
L 1484 -844 
Q 1016 -109 783 600 
Q 550 1309 550 2009 
Q 550 2706 781 3412 
Q 1013 4119 1484 4856 
L 1984 4856 
z
" transform="scale(0.015625)"/>
       <path id="DejaVuSans-63" d="M 3122 3366 
L 3122 2828 
Q 2878 2963 2633 3030 
Q 2388 3097 2138 3097 
Q 1578 3097 1268 2742 
Q 959 2388 959 1747 
Q 959 1106 1268 751 
Q 1578 397 2138 397 
Q 2388 397 2633 464 
Q 2878 531 3122 666 
L 3122 134 
Q 2881 22 2623 -34 
Q 2366 -91 2075 -91 
Q 1284 -91 818 406 
Q 353 903 353 1747 
Q 353 2603 823 3093 
Q 1294 3584 2113 3584 
Q 2378 3584 2631 3529 
Q 2884 3475 3122 3366 
z
" transform="scale(0.015625)"/>
       <path id="DejaVuSans-6d" d="M 3328 2828 
Q 3544 3216 3844 3400 
Q 4144 3584 4550 3584 
Q 5097 3584 5394 3201 
Q 5691 2819 5691 2113 
L 5691 0 
L 5113 0 
L 5113 2094 
Q 5113 2597 4934 2840 
Q 4756 3084 4391 3084 
Q 3944 3084 3684 2787 
Q 3425 2491 3425 1978 
L 3425 0 
L 2847 0 
L 2847 2094 
Q 2847 2600 2669 2842 
Q 2491 3084 2119 3084 
Q 1678 3084 1418 2786 
Q 1159 2488 1159 1978 
L 1159 0 
L 581 0 
L 581 3500 
L 1159 3500 
L 1159 2956 
Q 1356 3278 1631 3431 
Q 1906 3584 2284 3584 
Q 2666 3584 2933 3390 
Q 3200 3197 3328 2828 
z
" transform="scale(0.015625)"/>
       <path id="DejaVuSans-29" d="M 513 4856 
L 1013 4856 
Q 1481 4119 1714 3412 
Q 1947 2706 1947 2009 
Q 1947 1309 1714 600 
Q 1481 -109 1013 -844 
L 513 -844 
Q 928 -128 1133 580 
Q 1338 1288 1338 2009 
Q 1338 2731 1133 3434 
Q 928 4138 513 4856 
z
" transform="scale(0.015625)"/>
      </defs>
      <use xlink:href="#DejaVuSans-50"/>
      <use xlink:href="#DejaVuSans-6f" x="56.677734"/>
      <use xlink:href="#DejaVuSans-73" x="117.859375"/>
      <use xlink:href="#DejaVuSans-69" x="169.958984"/>
      <use xlink:href="#DejaVuSans-74" x="197.742188"/>
      <use xlink:href="#DejaVuSans-69" x="236.951172"/>
      <use xlink:href="#DejaVuSans-6f" x="264.734375"/>
      <use xlink:href="#DejaVuSans-6e" x="325.916016"/>
      <use xlink:href="#DejaVuSans-20" x="389.294922"/>
      <use xlink:href="#DejaVuSans-28" x="421.082031"/>
      <use xlink:href="#DejaVuSans-63" x="460.095703"/>
      <use xlink:href="#DejaVuSans-6d" x="515.076172"/>
      <use xlink:href="#DejaVuSans-29" x="612.488281"/>
     </g>
     <!--  = 100,  = 10 -->
     <g transform="translate(195.989688 347.058375) scale(0.1 -0.1)">
      <defs>
       <path id="DejaVuSans-3bc" d="M 544 -1331 
L 544 3500 
L 1119 3500 
L 1119 1325 
Q 1119 872 1334 640 
Q 1550 409 1972 409 
Q 2434 409 2667 671 
Q 2900 934 2900 1459 
L 2900 3500 
L 3475 3500 
L 3475 806 
Q 3475 619 3529 530 
Q 3584 441 3700 441 
Q 3728 441 3778 458 
Q 3828 475 3916 513 
L 3916 50 
Q 3788 -22 3673 -56 
Q 3559 -91 3450 -91 
Q 3234 -91 3106 31 
Q 2978 153 2931 403 
Q 2775 156 2548 32 
Q 2322 -91 2016 -91 
Q 1697 -91 1473 31 
Q 1250 153 1119 397 
L 1119 -1331 
L 544 -1331 
z
" transform="scale(0.015625)"/>
       <path id="DejaVuSans-3d" d="M 678 2906 
L 4684 2906 
L 4684 2381 
L 678 2381 
L 678 2906 
z
M 678 1631 
L 4684 1631 
L 4684 1100 
L 678 1100 
L 678 1631 
z
" transform="scale(0.015625)"/>
       <path id="DejaVuSans-2c" d="M 750 794 
L 1409 794 
L 1409 256 
L 897 -744 
L 494 -744 
L 750 256 
L 750 794 
z
" transform="scale(0.015625)"/>
       <path id="DejaVuSans-3c3" d="M 1959 3044 
Q 1484 3044 1228 2700 
Q 959 2341 959 1747 
Q 959 1119 1226 758 
Q 1494 397 1959 397 
Q 2419 397 2687 759 
Q 2956 1122 2956 1747 
Q 2956 2319 2688 2700 
Q 2441 3044 1959 3044 
z
M 1959 3500 
L 3869 3500 
L 3869 2925 
L 3225 2925 
Q 3566 2438 3566 1747 
Q 3566 888 3138 400 
Q 2709 -91 1959 -91 
Q 1206 -91 781 400 
Q 353 888 353 1747 
Q 353 2613 781 3097 
Q 1134 3500 1959 3500 
z
" transform="scale(0.015625)"/>
      </defs>
      <use xlink:href="#DejaVuSans-3bc"/>
      <use xlink:href="#DejaVuSans-20" x="63.623047"/>
      <use xlink:href="#DejaVuSans-3d" x="95.410156"/>
      <use xlink:href="#DejaVuSans-20" x="179.199219"/>
      <use xlink:href="#DejaVuSans-31" x="210.986328"/>
      <use xlink:href="#DejaVuSans-30" x="274.609375"/>
      <use xlink:href="#DejaVuSans-30" x="338.232422"/>
      <use xlink:href="#DejaVuSans-2c" x="401.855469"/>
      <use xlink:href="#DejaVuSans-20" x="433.642578"/>
      <use xlink:href="#DejaVuSans-3c3" x="465.429688"/>
      <use xlink:href="#DejaVuSans-20" x="528.808594"/>
      <use xlink:href="#DejaVuSans-3d" x="560.595703"/>
      <use xlink:href="#DejaVuSans-20" x="644.384766"/>
      <use xlink:href="#DejaVuSans-31" x="676.171875"/>
      <use xlink:href="#DejaVuSans-30" x="739.794922"/>
     </g>
    </g>
   </g>
   <g id="matplotlib.axis_2">
    <g id="text_6">
     <!-- Probability Density -->
     <g transform="translate(51.520312 221.554563) rotate(-90) scale(0.1 -0.1)">
      <defs>
       <path id="DejaVuSans-72" d="M 2631 2963 
Q 2534 3019 2420 3045 
Q 2306 3072 2169 3072 
Q 1681 3072 1420 2755 
Q 1159 2438 1159 1844 
L 1159 0 
L 581 0 
L 581 3500 
L 1159 3500 
L 1159 2956 
Q 1341 3275 1631 3429 
Q 1922 3584 2338 3584 
Q 2397 3584 2469 3576 
Q 2541 3569 2628 3553 
L 2631 2963 
z
" transform="scale(0.015625)"/>
       <path id="DejaVuSans-62" d="M 3116 1747 
Q 3116 2381 2855 2742 
Q 2594 3103 2138 3103 
Q 1681 3103 1420 2742 
Q 1159 2381 1159 1747 
Q 1159 1113 1420 752 
Q 1681 391 2138 391 
Q 2594 391 2855 752 
Q 3116 1113 3116 1747 
z
M 1159 2969 
Q 1341 3281 1617 3432 
Q 1894 3584 2278 3584 
Q 2916 3584 3314 3078 
Q 3713 2572 3713 1747 
Q 3713 922 3314 415 
Q 2916 -91 2278 -91 
Q 1894 -91 1617 61 
Q 1341 213 1159 525 
L 1159 0 
L 581 0 
L 581 4863 
L 1159 4863 
L 1159 2969 
z
" transform="scale(0.015625)"/>
       <path id="DejaVuSans-61" d="M 2194 1759 
Q 1497 1759 1228 1600 
Q 959 1441 959 1056 
Q 959 750 1161 570 
Q 1363 391 1709 391 
Q 2188 391 2477 730 
Q 2766 1069 2766 1631 
L 2766 1759 
L 2194 1759 
z
M 3341 1997 
L 3341 0 
L 2766 0 
L 2766 531 
Q 2569 213 2275 61 
Q 1981 -91 1556 -91 
Q 1019 -91 701 211 
Q 384 513 384 1019 
Q 384 1609 779 1909 
Q 1175 2209 1959 2209 
L 2766 2209 
L 2766 2266 
Q 2766 2663 2505 2880 
Q 2244 3097 1772 3097 
Q 1472 3097 1187 3025 
Q 903 2953 641 2809 
L 641 3341 
Q 956 3463 1253 3523 
Q 1550 3584 1831 3584 
Q 2591 3584 2966 3190 
Q 3341 2797 3341 1997 
z
" transform="scale(0.015625)"/>
       <path id="DejaVuSans-6c" d="M 603 4863 
L 1178 4863 
L 1178 0 
L 603 0 
L 603 4863 
z
" transform="scale(0.015625)"/>
       <path id="DejaVuSans-79" d="M 2059 -325 
Q 1816 -950 1584 -1140 
Q 1353 -1331 966 -1331 
L 506 -1331 
L 506 -850 
L 844 -850 
Q 1081 -850 1212 -737 
Q 1344 -625 1503 -206 
L 1606 56 
L 191 3500 
L 800 3500 
L 1894 763 
L 2988 3500 
L 3597 3500 
L 2059 -325 
z
" transform="scale(0.015625)"/>
       <path id="DejaVuSans-44" d="M 1259 4147 
L 1259 519 
L 2022 519 
Q 2988 519 3436 956 
Q 3884 1394 3884 2338 
Q 3884 3275 3436 3711 
Q 2988 4147 2022 4147 
L 1259 4147 
z
M 628 4666 
L 1925 4666 
Q 3281 4666 3915 4102 
Q 4550 3538 4550 2338 
Q 4550 1131 3912 565 
Q 3275 0 1925 0 
L 628 0 
L 628 4666 
z
" transform="scale(0.015625)"/>
       <path id="DejaVuSans-65" d="M 3597 1894 
L 3597 1613 
L 953 1613 
Q 991 1019 1311 708 
Q 1631 397 2203 397 
Q 2534 397 2845 478 
Q 3156 559 3463 722 
L 3463 178 
Q 3153 47 2828 -22 
Q 2503 -91 2169 -91 
Q 1331 -91 842 396 
Q 353 884 353 1716 
Q 353 2575 817 3079 
Q 1281 3584 2069 3584 
Q 2775 3584 3186 3129 
Q 3597 2675 3597 1894 
z
M 3022 2063 
Q 3016 2534 2758 2815 
Q 2500 3097 2075 3097 
Q 1594 3097 1305 2825 
Q 1016 2553 972 2059 
L 3022 2063 
z
" transform="scale(0.015625)"/>
      </defs>
      <use xlink:href="#DejaVuSans-50"/>
      <use xlink:href="#DejaVuSans-72" x="58.552734"/>
      <use xlink:href="#DejaVuSans-6f" x="97.416016"/>
      <use xlink:href="#DejaVuSans-62" x="158.597656"/>
      <use xlink:href="#DejaVuSans-61" x="222.074219"/>
      <use xlink:href="#DejaVuSans-62" x="283.353516"/>
      <use xlink:href="#DejaVuSans-69" x="346.830078"/>
      <use xlink:href="#DejaVuSans-6c" x="374.613281"/>
      <use xlink:href="#DejaVuSans-69" x="402.396484"/>
      <use xlink:href="#DejaVuSans-74" x="430.179688"/>
      <use xlink:href="#DejaVuSans-79" x="469.388672"/>
      <use xlink:href="#DejaVuSans-20" x="528.568359"/>
      <use xlink:href="#DejaVuSans-44" x="560.355469"/>
      <use xlink:href="#DejaVuSans-65" x="637.357422"/>
      <use xlink:href="#DejaVuSans-6e" x="698.880859"/>
      <use xlink:href="#DejaVuSans-73" x="762.259766"/>
      <use xlink:href="#DejaVuSans-69" x="814.359375"/>
      <use xlink:href="#DejaVuSans-74" x="842.142578"/>
      <use xlink:href="#DejaVuSans-79" x="881.351562"/>
     </g>
    </g>
   </g>
   <g id="line2d_5">
    <path d="M 73.832727 295.488 
L 211.624046 295.377214 
L 218.123636 295.131509 
L 222.34837 294.764331 
L 225.598165 294.274475 
L 228.198002 293.684448 
L 230.472858 292.969108 
L 232.747715 292.011297 
L 234.697592 290.948017 
L 236.647469 289.61071 
L 238.272367 288.248012 
L 239.897265 286.622876 
L 241.522162 284.698083 
L 243.14706 282.434178 
L 244.771957 279.790028 
L 246.396855 276.723555 
L 248.021753 273.192655 
L 249.64665 269.156297 
L 251.271548 264.575794 
L 252.896446 259.416239 
L 254.846323 252.419271 
L 256.7962 244.508797 
L 258.746077 235.666088 
L 261.020934 224.178323 
L 263.29579 211.481328 
L 265.895627 195.632343 
L 268.820442 176.414262 
L 273.695135 142.58964 
L 277.919869 113.734141 
L 280.519705 97.378562 
L 282.794562 84.547381 
L 284.419459 76.464021 
L 286.044357 69.435453 
L 287.344275 64.652962 
L 288.644193 60.675462 
L 289.619132 58.24785 
L 290.59407 56.313892 
L 291.569009 54.886017 
L 292.218968 54.219946 
L 292.868927 53.784885 
L 293.518886 53.582089 
L 294.168845 53.612144 
L 294.818804 53.874962 
L 295.468763 54.369785 
L 296.118722 55.095186 
L 297.093661 56.610877 
L 298.0686 58.630738 
L 299.043538 61.1418 
L 300.343456 65.225868 
L 301.643374 70.108529 
L 303.268272 77.251789 
L 304.89317 85.436608 
L 306.843047 96.441762 
L 309.117903 110.590869 
L 312.367699 132.44758 
L 321.142146 192.553907 
L 324.066962 210.561398 
L 326.666798 225.067603 
L 328.941654 236.463466 
L 330.891532 245.225792 
L 332.841409 253.056653 
L 334.791286 259.976556 
L 336.741163 266.02438 
L 338.69104 271.25316 
L 340.315938 275.030144 
L 341.940835 278.322108 
L 343.565733 281.170773 
L 345.190631 283.618354 
L 346.815528 285.706558 
L 348.440426 287.475753 
L 350.065324 288.964329 
L 352.015201 290.430601 
L 353.965078 291.601142 
L 355.914955 292.526537 
L 358.189812 293.355078 
L 360.789648 294.043195 
L 363.714464 294.572834 
L 367.289238 294.97794 
L 371.838952 295.255615 
L 378.663522 295.422587 
L 392.637641 295.484496 
L 398.487273 295.487098 
L 398.487273 295.487098 
" clip-path="url(#p8fb945e1bc)" style="fill: none; stroke: #000000; stroke-width: 2; stroke-linecap: square"/>
   </g>
   <g id="line2d_6">
    <path d="M 57.6 295.488 
L 414.72 295.488 
" clip-path="url(#p8fb945e1bc)" style="fill: none; stroke: #000000; stroke-linecap: square"/>
   </g>
   <g id="line2d_7">
    <path d="M 84.305455 307.584 
L 84.305455 41.472 
" clip-path="url(#p8fb945e1bc)" style="fill: none; stroke: #000000; stroke-linecap: square"/>
   </g>
  </g>
 </g>
 <defs>
  <clipPath id="p8fb945e1bc">
   <rect x="57.6" y="41.472" width="357.12" height="266.112"/>
  </clipPath>
 </defs>
 <defs>
  <pattern id="h14306ac4ea" patternUnits="userSpaceOnUse" x="0" y="0" width="72" height="72">
   <rect x="0" y="0" width="73" height="73" fill="none"/>
   <path d="M -36 36 
L 36 -36 
M -33.6 38.4 
L 38.4 -33.6 
M -31.2 40.8 
L 40.8 -31.2 
M -28.8 43.2 
L 43.2 -28.8 
M -26.4 45.6 
L 45.6 -26.4 
M -24 48 
L 48 -24 
M -21.6 50.4 
L 50.4 -21.6 
M -19.2 52.8 
L 52.8 -19.2 
M -16.8 55.2 
L 55.2 -16.8 
M -14.4 57.6 
L 57.6 -14.4 
M -12 60 
L 60 -12 
M -9.6 62.4 
L 62.4 -9.6 
M -7.2 64.8 
L 64.8 -7.2 
M -4.8 67.2 
L 67.2 -4.8 
M -2.4 69.6 
L 69.6 -2.4 
M 0 72 
L 72 0 
M 2.4 74.4 
L 74.4 2.4 
M 4.8 76.8 
L 76.8 4.8 
M 7.2 79.2 
L 79.2 7.2 
M 9.6 81.6 
L 81.6 9.6 
M 12 84 
L 84 12 
M 14.4 86.4 
L 86.4 14.4 
M 16.8 88.8 
L 88.8 16.8 
M 19.2 91.2 
L 91.2 19.2 
M 21.6 93.6 
L 93.6 21.6 
M 24 96 
L 96 24 
M 26.4 98.4 
L 98.4 26.4 
M 28.8 100.8 
L 100.8 28.8 
M 31.2 103.2 
L 103.2 31.2 
M 33.6 105.6 
L 105.6 33.6 
M 36 108 
L 108 36 
" style="fill: #000000; stroke: #000000; stroke-width: 1.0; stroke-linecap: butt; stroke-linejoin: miter"/>
  </pattern>
 </defs>
</svg>
