<?xml version="1.0" encoding="utf-8" standalone="no"?>
<!DOCTYPE svg PUBLIC "-//W3C//DTD SVG 1.1//EN"
  "http://www.w3.org/Graphics/SVG/1.1/DTD/svg11.dtd">
<svg xmlns:xlink="http://www.w3.org/1999/xlink" width="460.8pt" height="345.6pt" viewBox="0 0 460.8 345.6" xmlns="http://www.w3.org/2000/svg" version="1.1">
 <metadata>
  <rdf:RDF xmlns:dc="http://purl.org/dc/elements/1.1/" xmlns:cc="http://creativecommons.org/ns#" xmlns:rdf="http://www.w3.org/1999/02/22-rdf-syntax-ns#">
   <cc:Work>
    <dc:type rdf:resource="http://purl.org/dc/dcmitype/StillImage"/>
    <dc:date>2024-04-01T14:24:15.891521</dc:date>
    <dc:format>image/svg+xml</dc:format>
    <dc:creator>
     <cc:Agent>
      <dc:title>Matplotlib v3.8.3, https://matplotlib.org/</dc:title>
     </cc:Agent>
    </dc:creator>
   </cc:Work>
  </rdf:RDF>
 </metadata>
 <defs>
  <style type="text/css">*{stroke-linejoin: round; stroke-linecap: butt}</style>
 </defs>
 <g id="figure_1">
  <g id="patch_1">
   <path d="M 0 345.6 
L 460.8 345.6 
L 460.8 0 
L 0 0 
L 0 345.6 
z
" style="fill: none"/>
  </g>
  <g id="axes_1">
   <g id="patch_2">
    <path d="M 92.550699 307.584 
L 379.769301 307.584 
L 379.769301 41.472 
L 92.550699 41.472 
L 92.550699 307.584 
z
" style="fill: none"/>
   </g>
   <g id="PathCollection_1">
    <defs>
     <path id="C0_0_e0fbefb4ba" d="M 0 2.236068 
C 0.593012 2.236068 1.161816 2.000462 1.581139 1.581139 
C 2.000462 1.161816 2.236068 0.593012 2.236068 -0 
C 2.236068 -0.593012 2.000462 -1.161816 1.581139 -1.581139 
C 1.161816 -2.000462 0.593012 -2.236068 0 -2.236068 
C -0.593012 -2.236068 -1.161816 -2.000462 -1.581139 -1.581139 
C -2.000462 -1.161816 -2.236068 -0.593012 -2.236068 0 
C -2.236068 0.593012 -2.000462 1.161816 -1.581139 1.581139 
C -1.161816 2.000462 -0.593012 2.236068 0 2.236068 
z
"/>
    </defs>
    <g clip-path="url(#pda1efb69da)">
     <use xlink:href="#C0_0_e0fbefb4ba" x="153.582595" y="281.957658" style="fill: #423f85; stroke: #423f85"/>
    </g>
    <g clip-path="url(#pda1efb69da)">
     <use xlink:href="#C0_0_e0fbefb4ba" x="115.702791" y="304.003285" style="fill: #470e61; stroke: #470e61"/>
    </g>
    <g clip-path="url(#pda1efb69da)">
     <use xlink:href="#C0_0_e0fbefb4ba" x="165.962401" y="287.416244" style="fill: #3d4d8a; stroke: #3d4d8a"/>
    </g>
    <g clip-path="url(#pda1efb69da)">
     <use xlink:href="#C0_0_e0fbefb4ba" x="146.452455" y="301.825413" style="fill: #453781; stroke: #453781"/>
    </g>
    <g clip-path="url(#pda1efb69da)">
     <use xlink:href="#C0_0_e0fbefb4ba" x="141.787657" y="296.716689" style="fill: #46307e; stroke: #46307e"/>
    </g>
    <g clip-path="url(#pda1efb69da)">
     <use xlink:href="#C0_0_e0fbefb4ba" x="149.459792" y="299.977985" style="fill: #443983; stroke: #443983"/>
    </g>
    <g clip-path="url(#pda1efb69da)">
     <use xlink:href="#C0_0_e0fbefb4ba" x="212.632821" y="147.9168" style="fill: #297a8e; stroke: #297a8e"/>
    </g>
    <g clip-path="url(#pda1efb69da)">
     <use xlink:href="#C0_0_e0fbefb4ba" x="129.095518" y="290.08101" style="fill: #482173; stroke: #482173"/>
    </g>
    <g clip-path="url(#pda1efb69da)">
     <use xlink:href="#C0_0_e0fbefb4ba" x="109.848864" y="291.616911" style="fill: #46075a; stroke: #46075a"/>
    </g>
    <g clip-path="url(#pda1efb69da)">
     <use xlink:href="#C0_0_e0fbefb4ba" x="128.457711" y="289.118263" style="fill: #482071; stroke: #482071"/>
    </g>
    <g clip-path="url(#pda1efb69da)">
     <use xlink:href="#C0_0_e0fbefb4ba" x="118.595345" y="296.42374" style="fill: #471365; stroke: #471365"/>
    </g>
    <g clip-path="url(#pda1efb69da)">
     <use xlink:href="#C0_0_e0fbefb4ba" x="106.575222" y="303.154142" style="fill: #440154; stroke: #440154"/>
    </g>
    <g clip-path="url(#pda1efb69da)">
     <use xlink:href="#C0_0_e0fbefb4ba" x="177.302133" y="264.552417" style="fill: #38598c; stroke: #38598c"/>
    </g>
    <g clip-path="url(#pda1efb69da)">
     <use xlink:href="#C0_0_e0fbefb4ba" x="199.069122" y="225.870887" style="fill: #2e6e8e; stroke: #2e6e8e"/>
    </g>
    <g clip-path="url(#pda1efb69da)">
     <use xlink:href="#C0_0_e0fbefb4ba" x="139.632892" y="289.457726" style="fill: #472e7c; stroke: #472e7c"/>
    </g>
    <g clip-path="url(#pda1efb69da)">
     <use xlink:href="#C0_0_e0fbefb4ba" x="154.988885" y="293.517709" style="fill: #424086; stroke: #424086"/>
    </g>
    <g clip-path="url(#pda1efb69da)">
     <use xlink:href="#C0_0_e0fbefb4ba" x="113.310903" y="288.718161" style="fill: #460b5e; stroke: #460b5e"/>
    </g>
    <g clip-path="url(#pda1efb69da)">
     <use xlink:href="#C0_0_e0fbefb4ba" x="105.79944" y="305.814438" style="fill: #440154; stroke: #440154"/>
    </g>
    <g clip-path="url(#pda1efb69da)">
     <use xlink:href="#C0_0_e0fbefb4ba" x="125.304548" y="298.485875" style="fill: #481c6e; stroke: #481c6e"/>
    </g>
    <g clip-path="url(#pda1efb69da)">
     <use xlink:href="#C0_0_e0fbefb4ba" x="127.385546" y="302.422704" style="fill: #481f70; stroke: #481f70"/>
    </g>
    <g clip-path="url(#pda1efb69da)">
     <use xlink:href="#C0_0_e0fbefb4ba" x="130.910369" y="302.783718" style="fill: #482374; stroke: #482374"/>
    </g>
    <g clip-path="url(#pda1efb69da)">
     <use xlink:href="#C0_0_e0fbefb4ba" x="119.735188" y="294.179189" style="fill: #481467; stroke: #481467"/>
    </g>
    <g clip-path="url(#pda1efb69da)">
     <use xlink:href="#C0_0_e0fbefb4ba" x="110.042307" y="303.192096" style="fill: #46075a; stroke: #46075a"/>
    </g>
    <g clip-path="url(#pda1efb69da)">
     <use xlink:href="#C0_0_e0fbefb4ba" x="125.640559" y="289.095618" style="fill: #481c6e; stroke: #481c6e"/>
    </g>
    <g clip-path="url(#pda1efb69da)">
     <use xlink:href="#C0_0_e0fbefb4ba" x="105.60609" y="300.016646" style="fill: #440154; stroke: #440154"/>
    </g>
    <g clip-path="url(#pda1efb69da)">
     <use xlink:href="#C0_0_e0fbefb4ba" x="136.901065" y="306.679322" style="fill: #472a7a; stroke: #472a7a"/>
    </g>
    <g clip-path="url(#pda1efb69da)">
     <use xlink:href="#C0_0_e0fbefb4ba" x="149.938981" y="303.17482" style="fill: #443a83; stroke: #443a83"/>
    </g>
    <g clip-path="url(#pda1efb69da)">
     <use xlink:href="#C0_0_e0fbefb4ba" x="120.992275" y="299.703498" style="fill: #481769; stroke: #481769"/>
    </g>
    <g clip-path="url(#pda1efb69da)">
     <use xlink:href="#C0_0_e0fbefb4ba" x="128.595446" y="291.473676" style="fill: #482071; stroke: #482071"/>
    </g>
    <g clip-path="url(#pda1efb69da)">
     <use xlink:href="#C0_0_e0fbefb4ba" x="175.182024" y="237.322516" style="fill: #39568c; stroke: #39568c"/>
    </g>
    <g clip-path="url(#pda1efb69da)">
     <use xlink:href="#C0_0_e0fbefb4ba" x="121.533462" y="300.019151" style="fill: #481769; stroke: #481769"/>
    </g>
    <g clip-path="url(#pda1efb69da)">
     <use xlink:href="#C0_0_e0fbefb4ba" x="171.929505" y="271.63702" style="fill: #3a538b; stroke: #3a538b"/>
    </g>
    <g clip-path="url(#pda1efb69da)">
     <use xlink:href="#C0_0_e0fbefb4ba" x="144.003924" y="294.154235" style="fill: #46337f; stroke: #46337f"/>
    </g>
    <g clip-path="url(#pda1efb69da)">
     <use xlink:href="#C0_0_e0fbefb4ba" x="127.315801" y="297.60868" style="fill: #481f70; stroke: #481f70"/>
    </g>
    <g clip-path="url(#pda1efb69da)">
     <use xlink:href="#C0_0_e0fbefb4ba" x="217.986949" y="250.593131" style="fill: #27808e; stroke: #27808e"/>
    </g>
    <g clip-path="url(#pda1efb69da)">
     <use xlink:href="#C0_0_e0fbefb4ba" x="118.423762" y="307.124576" style="fill: #471365; stroke: #471365"/>
    </g>
    <g clip-path="url(#pda1efb69da)">
     <use xlink:href="#C0_0_e0fbefb4ba" x="155.774718" y="304.153517" style="fill: #424186; stroke: #424186"/>
    </g>
    <g clip-path="url(#pda1efb69da)">
     <use xlink:href="#C0_0_e0fbefb4ba" x="184.018127" y="263.058329" style="fill: #355f8d; stroke: #355f8d"/>
    </g>
    <g clip-path="url(#pda1efb69da)">
     <use xlink:href="#C0_0_e0fbefb4ba" x="156.90609" y="290.945309" style="fill: #414287; stroke: #414287"/>
    </g>
    <g clip-path="url(#pda1efb69da)">
     <use xlink:href="#C0_0_e0fbefb4ba" x="117.82476" y="289.36648" style="fill: #471164; stroke: #471164"/>
    </g>
    <g clip-path="url(#pda1efb69da)">
     <use xlink:href="#C0_0_e0fbefb4ba" x="124.301493" y="304.319167" style="fill: #481b6d; stroke: #481b6d"/>
    </g>
    <g clip-path="url(#pda1efb69da)">
     <use xlink:href="#C0_0_e0fbefb4ba" x="118.415346" y="305.434955" style="fill: #471365; stroke: #471365"/>
    </g>
    <g clip-path="url(#pda1efb69da)">
     <use xlink:href="#C0_0_e0fbefb4ba" x="133.282311" y="298.269985" style="fill: #482677; stroke: #482677"/>
    </g>
    <g clip-path="url(#pda1efb69da)">
     <use xlink:href="#C0_0_e0fbefb4ba" x="316.312842" y="286.236237" style="fill: #7fd34e; stroke: #7fd34e"/>
    </g>
    <g clip-path="url(#pda1efb69da)">
     <use xlink:href="#C0_0_e0fbefb4ba" x="328.41035" y="289.266109" style="fill: #9dd93b; stroke: #9dd93b"/>
    </g>
    <g clip-path="url(#pda1efb69da)">
     <use xlink:href="#C0_0_e0fbefb4ba" x="342.68493" y="301.751635" style="fill: #c2df23; stroke: #c2df23"/>
    </g>
    <g clip-path="url(#pda1efb69da)">
     <use xlink:href="#C0_0_e0fbefb4ba" x="301.275388" y="264.953638" style="fill: #5cc863; stroke: #5cc863"/>
    </g>
    <g clip-path="url(#pda1efb69da)">
     <use xlink:href="#C0_0_e0fbefb4ba" x="334.179496" y="299.552359" style="fill: #addc30; stroke: #addc30"/>
    </g>
    <g clip-path="url(#pda1efb69da)">
     <use xlink:href="#C0_0_e0fbefb4ba" x="337.476203" y="290.427707" style="fill: #b5de2b; stroke: #b5de2b"/>
    </g>
    <g clip-path="url(#pda1efb69da)">
     <use xlink:href="#C0_0_e0fbefb4ba" x="343.311695" y="285.232977" style="fill: #c5e021; stroke: #c5e021"/>
    </g>
    <g clip-path="url(#pda1efb69da)">
     <use xlink:href="#C0_0_e0fbefb4ba" x="342.490475" y="286.569808" style="fill: #c2df23; stroke: #c2df23"/>
    </g>
    <g clip-path="url(#pda1efb69da)">
     <use xlink:href="#C0_0_e0fbefb4ba" x="336.767538" y="299.55599" style="fill: #b2dd2d; stroke: #b2dd2d"/>
    </g>
    <g clip-path="url(#pda1efb69da)">
     <use xlink:href="#C0_0_e0fbefb4ba" x="256.52822" y="263.635027" style="fill: #1fa287; stroke: #1fa287"/>
    </g>
    <g clip-path="url(#pda1efb69da)">
     <use xlink:href="#C0_0_e0fbefb4ba" x="355.585634" y="290.169727" style="fill: #e5e419; stroke: #e5e419"/>
    </g>
    <g clip-path="url(#pda1efb69da)">
     <use xlink:href="#C0_0_e0fbefb4ba" x="341.883789" y="288.863018" style="fill: #c0df25; stroke: #c0df25"/>
    </g>
    <g clip-path="url(#pda1efb69da)">
     <use xlink:href="#C0_0_e0fbefb4ba" x="332.713816" y="299.71607" style="fill: #a8db34; stroke: #a8db34"/>
    </g>
    <g clip-path="url(#pda1efb69da)">
     <use xlink:href="#C0_0_e0fbefb4ba" x="301.512158" y="276.5693" style="fill: #5ec962; stroke: #5ec962"/>
    </g>
    <g clip-path="url(#pda1efb69da)">
     <use xlink:href="#C0_0_e0fbefb4ba" x="325.634628" y="280.54946" style="fill: #95d840; stroke: #95d840"/>
    </g>
    <g clip-path="url(#pda1efb69da)">
     <use xlink:href="#C0_0_e0fbefb4ba" x="352.088834" y="305.159692" style="fill: #dae319; stroke: #dae319"/>
    </g>
    <g clip-path="url(#pda1efb69da)">
     <use xlink:href="#C0_0_e0fbefb4ba" x="323.370335" y="299.023074" style="fill: #90d743; stroke: #90d743"/>
    </g>
    <g clip-path="url(#pda1efb69da)">
     <use xlink:href="#C0_0_e0fbefb4ba" x="357.046697" y="293.146789" style="fill: #e7e419; stroke: #e7e419"/>
    </g>
    <g clip-path="url(#pda1efb69da)">
     <use xlink:href="#C0_0_e0fbefb4ba" x="354.100664" y="297.662545" style="fill: #dfe318; stroke: #dfe318"/>
    </g>
    <g clip-path="url(#pda1efb69da)">
     <use xlink:href="#C0_0_e0fbefb4ba" x="328.288381" y="296.153545" style="fill: #9dd93b; stroke: #9dd93b"/>
    </g>
    <g clip-path="url(#pda1efb69da)">
     <use xlink:href="#C0_0_e0fbefb4ba" x="256.543695" y="195.887233" style="fill: #1fa287; stroke: #1fa287"/>
    </g>
    <g clip-path="url(#pda1efb69da)">
     <use xlink:href="#C0_0_e0fbefb4ba" x="250.468457" y="162.927717" style="fill: #1f9e89; stroke: #1f9e89"/>
    </g>
    <g clip-path="url(#pda1efb69da)">
     <use xlink:href="#C0_0_e0fbefb4ba" x="311.608001" y="295.526873" style="fill: #73d056; stroke: #73d056"/>
    </g>
    <g clip-path="url(#pda1efb69da)">
     <use xlink:href="#C0_0_e0fbefb4ba" x="328.250451" y="301.642958" style="fill: #9dd93b; stroke: #9dd93b"/>
    </g>
    <g clip-path="url(#pda1efb69da)">
     <use xlink:href="#C0_0_e0fbefb4ba" x="316.668961" y="281.423493" style="fill: #7fd34e; stroke: #7fd34e"/>
    </g>
    <g clip-path="url(#pda1efb69da)">
     <use xlink:href="#C0_0_e0fbefb4ba" x="315.016" y="291.432719" style="fill: #7cd250; stroke: #7cd250"/>
    </g>
    <g clip-path="url(#pda1efb69da)">
     <use xlink:href="#C0_0_e0fbefb4ba" x="335.928228" y="290.582587" style="fill: #b0dd2f; stroke: #b0dd2f"/>
    </g>
    <g clip-path="url(#pda1efb69da)">
     <use xlink:href="#C0_0_e0fbefb4ba" x="277.667349" y="209.023552" style="fill: #32b67a; stroke: #32b67a"/>
    </g>
    <g clip-path="url(#pda1efb69da)">
     <use xlink:href="#C0_0_e0fbefb4ba" x="318.846469" y="273.652226" style="fill: #86d549; stroke: #86d549"/>
    </g>
    <g clip-path="url(#pda1efb69da)">
     <use xlink:href="#C0_0_e0fbefb4ba" x="337.93415" y="297.453883" style="fill: #b5de2b; stroke: #b5de2b"/>
    </g>
    <g clip-path="url(#pda1efb69da)">
     <use xlink:href="#C0_0_e0fbefb4ba" x="313.33925" y="297.883327" style="fill: #77d153; stroke: #77d153"/>
    </g>
    <g clip-path="url(#pda1efb69da)">
     <use xlink:href="#C0_0_e0fbefb4ba" x="292.573026" y="235.403128" style="fill: #4cc26c; stroke: #4cc26c"/>
    </g>
    <g clip-path="url(#pda1efb69da)">
     <use xlink:href="#C0_0_e0fbefb4ba" x="329.243571" y="298.852072" style="fill: #a0da39; stroke: #a0da39"/>
    </g>
    <g clip-path="url(#pda1efb69da)">
     <use xlink:href="#C0_0_e0fbefb4ba" x="348.090793" y="298.665174" style="fill: #d0e11c; stroke: #d0e11c"/>
    </g>
    <g clip-path="url(#pda1efb69da)">
     <use xlink:href="#C0_0_e0fbefb4ba" x="329.8673" y="302.935513" style="fill: #a0da39; stroke: #a0da39"/>
    </g>
    <g clip-path="url(#pda1efb69da)">
     <use xlink:href="#C0_0_e0fbefb4ba" x="291.877509" y="237.551363" style="fill: #4ac16d; stroke: #4ac16d"/>
    </g>
    <g clip-path="url(#pda1efb69da)">
     <use xlink:href="#C0_0_e0fbefb4ba" x="312.834497" y="292.243118" style="fill: #77d153; stroke: #77d153"/>
    </g>
    <g clip-path="url(#pda1efb69da)">
     <use xlink:href="#C0_0_e0fbefb4ba" x="366.71391" y="292.674021" style="fill: #fde725; stroke: #fde725"/>
    </g>
    <g clip-path="url(#pda1efb69da)">
     <use xlink:href="#C0_0_e0fbefb4ba" x="324.367527" y="299.976554" style="fill: #93d741; stroke: #93d741"/>
    </g>
    <g clip-path="url(#pda1efb69da)">
     <use xlink:href="#C0_0_e0fbefb4ba" x="304.20168" y="270.322961" style="fill: #63cb5f; stroke: #63cb5f"/>
    </g>
    <g clip-path="url(#pda1efb69da)">
     <use xlink:href="#C0_0_e0fbefb4ba" x="321.051023" y="291.169713" style="fill: #8bd646; stroke: #8bd646"/>
    </g>
    <g clip-path="url(#pda1efb69da)">
     <use xlink:href="#C0_0_e0fbefb4ba" x="360.553525" y="307.584" style="fill: #efe51c; stroke: #efe51c"/>
    </g>
    <g clip-path="url(#pda1efb69da)">
     <use xlink:href="#C0_0_e0fbefb4ba" x="312.988671" y="279.050357" style="fill: #77d153; stroke: #77d153"/>
    </g>
    <g clip-path="url(#pda1efb69da)">
     <use xlink:href="#C0_0_e0fbefb4ba" x="319.092573" y="300.220078" style="fill: #86d549; stroke: #86d549"/>
    </g>
    <g clip-path="url(#pda1efb69da)">
     <use xlink:href="#C0_0_e0fbefb4ba" x="310.214627" y="267.081515" style="fill: #70cf57; stroke: #70cf57"/>
    </g>
   </g>
   <g id="matplotlib.axis_1">
    <g id="xtick_1">
     <g id="line2d_1">
      <defs>
       <path id="me747ab3799" d="M 0 0 
L 0 3.5 
" style="stroke: #000000; stroke-width: 0.8"/>
      </defs>
      <g>
       <use xlink:href="#me747ab3799" x="100.920724" y="307.584" style="stroke: #000000; stroke-width: 0.8"/>
      </g>
     </g>
     <g id="text_1">
      <!-- 0 -->
      <g transform="translate(97.739474 322.182437) scale(0.1 -0.1)">
       <defs>
        <path id="DejaVuSans-30" d="M 2034 4250 
Q 1547 4250 1301 3770 
Q 1056 3291 1056 2328 
Q 1056 1369 1301 889 
Q 1547 409 2034 409 
Q 2525 409 2770 889 
Q 3016 1369 3016 2328 
Q 3016 3291 2770 3770 
Q 2525 4250 2034 4250 
z
M 2034 4750 
Q 2819 4750 3233 4129 
Q 3647 3509 3647 2328 
Q 3647 1150 3233 529 
Q 2819 -91 2034 -91 
Q 1250 -91 836 529 
Q 422 1150 422 2328 
Q 422 3509 836 4129 
Q 1250 4750 2034 4750 
z
" transform="scale(0.015625)"/>
       </defs>
       <use xlink:href="#DejaVuSans-30"/>
      </g>
     </g>
    </g>
    <g id="xtick_2">
     <g id="line2d_2">
      <g>
       <use xlink:href="#me747ab3799" x="367.032724" y="307.584" style="stroke: #000000; stroke-width: 0.8"/>
      </g>
     </g>
     <g id="text_2">
      <!-- 1 -->
      <g transform="translate(363.851474 322.182437) scale(0.1 -0.1)">
       <defs>
        <path id="DejaVuSans-31" d="M 794 531 
L 1825 531 
L 1825 4091 
L 703 3866 
L 703 4441 
L 1819 4666 
L 2450 4666 
L 2450 531 
L 3481 531 
L 3481 0 
L 794 0 
L 794 531 
z
" transform="scale(0.015625)"/>
       </defs>
       <use xlink:href="#DejaVuSans-31"/>
      </g>
     </g>
    </g>
   </g>
   <g id="matplotlib.axis_2">
    <g id="text_3">
     <!-- Uncertainty -->
     <g transform="translate(86.471012 203.738937) rotate(-90) scale(0.1 -0.1)">
      <defs>
       <path id="DejaVuSans-55" d="M 556 4666 
L 1191 4666 
L 1191 1831 
Q 1191 1081 1462 751 
Q 1734 422 2344 422 
Q 2950 422 3222 751 
Q 3494 1081 3494 1831 
L 3494 4666 
L 4128 4666 
L 4128 1753 
Q 4128 841 3676 375 
Q 3225 -91 2344 -91 
Q 1459 -91 1007 375 
Q 556 841 556 1753 
L 556 4666 
z
" transform="scale(0.015625)"/>
       <path id="DejaVuSans-6e" d="M 3513 2113 
L 3513 0 
L 2938 0 
L 2938 2094 
Q 2938 2591 2744 2837 
Q 2550 3084 2163 3084 
Q 1697 3084 1428 2787 
Q 1159 2491 1159 1978 
L 1159 0 
L 581 0 
L 581 3500 
L 1159 3500 
L 1159 2956 
Q 1366 3272 1645 3428 
Q 1925 3584 2291 3584 
Q 2894 3584 3203 3211 
Q 3513 2838 3513 2113 
z
" transform="scale(0.015625)"/>
       <path id="DejaVuSans-63" d="M 3122 3366 
L 3122 2828 
Q 2878 2963 2633 3030 
Q 2388 3097 2138 3097 
Q 1578 3097 1268 2742 
Q 959 2388 959 1747 
Q 959 1106 1268 751 
Q 1578 397 2138 397 
Q 2388 397 2633 464 
Q 2878 531 3122 666 
L 3122 134 
Q 2881 22 2623 -34 
Q 2366 -91 2075 -91 
Q 1284 -91 818 406 
Q 353 903 353 1747 
Q 353 2603 823 3093 
Q 1294 3584 2113 3584 
Q 2378 3584 2631 3529 
Q 2884 3475 3122 3366 
z
" transform="scale(0.015625)"/>
       <path id="DejaVuSans-65" d="M 3597 1894 
L 3597 1613 
L 953 1613 
Q 991 1019 1311 708 
Q 1631 397 2203 397 
Q 2534 397 2845 478 
Q 3156 559 3463 722 
L 3463 178 
Q 3153 47 2828 -22 
Q 2503 -91 2169 -91 
Q 1331 -91 842 396 
Q 353 884 353 1716 
Q 353 2575 817 3079 
Q 1281 3584 2069 3584 
Q 2775 3584 3186 3129 
Q 3597 2675 3597 1894 
z
M 3022 2063 
Q 3016 2534 2758 2815 
Q 2500 3097 2075 3097 
Q 1594 3097 1305 2825 
Q 1016 2553 972 2059 
L 3022 2063 
z
" transform="scale(0.015625)"/>
       <path id="DejaVuSans-72" d="M 2631 2963 
Q 2534 3019 2420 3045 
Q 2306 3072 2169 3072 
Q 1681 3072 1420 2755 
Q 1159 2438 1159 1844 
L 1159 0 
L 581 0 
L 581 3500 
L 1159 3500 
L 1159 2956 
Q 1341 3275 1631 3429 
Q 1922 3584 2338 3584 
Q 2397 3584 2469 3576 
Q 2541 3569 2628 3553 
L 2631 2963 
z
" transform="scale(0.015625)"/>
       <path id="DejaVuSans-74" d="M 1172 4494 
L 1172 3500 
L 2356 3500 
L 2356 3053 
L 1172 3053 
L 1172 1153 
Q 1172 725 1289 603 
Q 1406 481 1766 481 
L 2356 481 
L 2356 0 
L 1766 0 
Q 1100 0 847 248 
Q 594 497 594 1153 
L 594 3053 
L 172 3053 
L 172 3500 
L 594 3500 
L 594 4494 
L 1172 4494 
z
" transform="scale(0.015625)"/>
       <path id="DejaVuSans-61" d="M 2194 1759 
Q 1497 1759 1228 1600 
Q 959 1441 959 1056 
Q 959 750 1161 570 
Q 1363 391 1709 391 
Q 2188 391 2477 730 
Q 2766 1069 2766 1631 
L 2766 1759 
L 2194 1759 
z
M 3341 1997 
L 3341 0 
L 2766 0 
L 2766 531 
Q 2569 213 2275 61 
Q 1981 -91 1556 -91 
Q 1019 -91 701 211 
Q 384 513 384 1019 
Q 384 1609 779 1909 
Q 1175 2209 1959 2209 
L 2766 2209 
L 2766 2266 
Q 2766 2663 2505 2880 
Q 2244 3097 1772 3097 
Q 1472 3097 1187 3025 
Q 903 2953 641 2809 
L 641 3341 
Q 956 3463 1253 3523 
Q 1550 3584 1831 3584 
Q 2591 3584 2966 3190 
Q 3341 2797 3341 1997 
z
" transform="scale(0.015625)"/>
       <path id="DejaVuSans-69" d="M 603 3500 
L 1178 3500 
L 1178 0 
L 603 0 
L 603 3500 
z
M 603 4863 
L 1178 4863 
L 1178 4134 
L 603 4134 
L 603 4863 
z
" transform="scale(0.015625)"/>
       <path id="DejaVuSans-79" d="M 2059 -325 
Q 1816 -950 1584 -1140 
Q 1353 -1331 966 -1331 
L 506 -1331 
L 506 -850 
L 844 -850 
Q 1081 -850 1212 -737 
Q 1344 -625 1503 -206 
L 1606 56 
L 191 3500 
L 800 3500 
L 1894 763 
L 2988 3500 
L 3597 3500 
L 2059 -325 
z
" transform="scale(0.015625)"/>
      </defs>
      <use xlink:href="#DejaVuSans-55"/>
      <use xlink:href="#DejaVuSans-6e" x="73.193359"/>
      <use xlink:href="#DejaVuSans-63" x="136.572266"/>
      <use xlink:href="#DejaVuSans-65" x="191.552734"/>
      <use xlink:href="#DejaVuSans-72" x="253.076172"/>
      <use xlink:href="#DejaVuSans-74" x="294.189453"/>
      <use xlink:href="#DejaVuSans-61" x="333.398438"/>
      <use xlink:href="#DejaVuSans-69" x="394.677734"/>
      <use xlink:href="#DejaVuSans-6e" x="422.460938"/>
      <use xlink:href="#DejaVuSans-74" x="485.839844"/>
      <use xlink:href="#DejaVuSans-79" x="525.048828"/>
     </g>
    </g>
   </g>
   <g id="line2d_3">
    <path d="M 233.976724 307.584 
L 233.976724 41.472 
" clip-path="url(#pda1efb69da)" style="fill: none; stroke-dasharray: 3.7,1.6; stroke-dashoffset: 0; stroke: #d3d3d3"/>
   </g>
   <g id="patch_3">
    <path d="M 92.550699 307.584 
L 92.550699 41.472 
" style="fill: none; stroke: #000000; stroke-width: 0.8; stroke-linejoin: miter; stroke-linecap: square"/>
   </g>
   <g id="patch_4">
    <path d="M 379.769301 307.584 
L 379.769301 41.472 
" style="fill: none; stroke: #000000; stroke-width: 0.8; stroke-linejoin: miter; stroke-linecap: square"/>
   </g>
   <g id="patch_5">
    <path d="M 92.550699 307.584 
L 379.769301 307.584 
" style="fill: none; stroke: #000000; stroke-width: 0.8; stroke-linejoin: miter; stroke-linecap: square"/>
   </g>
   <g id="patch_6">
    <path d="M 92.550699 41.472 
L 379.769301 41.472 
" style="fill: none; stroke: #000000; stroke-width: 0.8; stroke-linejoin: miter; stroke-linecap: square"/>
   </g>
  </g>
 </g>
 <defs>
  <clipPath id="pda1efb69da">
   <rect x="92.550699" y="41.472" width="287.218602" height="266.112"/>
  </clipPath>
 </defs>
</svg>
